<svg viewBox="0 0 127.72 33.77"><path d="M34.16.61c-1.78 0-3.22.13-3.7.13S27.9.61 25.94.61c-.52 0-.87 0-.87.3s.05.31.35.31a11.76 11.76 0 012.13.21c1.35.35 1.65 1.31 1.7 4.13l.47 22.08C28.33 26.2 23.6 20.9 19.29 16.3 12.6 9.13 6.13 2.13 5.48 1.39 5 1 4.3 0 4 0s-.47.48-.47 2.17v24.9c0 4-.21 5.22-1.3 5.52a6.11 6.11 0 01-1.78.26c-.22 0-.35.09-.35.26s.26.35.7.35c2 0 3.78-.13 4.17-.13s2.13.13 4.6.13c.52 0 .79-.09.79-.35s-.13-.26-.35-.26a9.32 9.32 0 01-2.17-.26c-1.18-.35-1.61-1.48-1.7-5L5.48 6.74c1.39 1.56 6.3 7 11.34 12.47 4.6 4.95 10.86 11.34 11.34 11.79 2.3 2.31 2.82 2.79 3.17 2.79s.39-.22.39-3.09l.09-25.47c0-2.6.17-3.56 1.61-3.86a3.81 3.81 0 011-.13c.31 0 .48-.13.48-.31s-.26-.32-.74-.32zm24.6 26.98c-.22 0-.3.18-.39.66-.3 1.78-.82 2.65-1.95 3.13a12.71 12.71 0 01-4.18.47c-4.26 0-4.91-.56-5-3.56V17a.28.28 0 01.31-.3c.74 0 5 .09 6.21.22 1.7.17 2.09.91 2.26 1.52a4.51 4.51 0 01.17 1.43c0 .22.09.39.31.39s.3-.47.3-.82.09-1.91.18-2.78c.13-1.44.34-2.18.34-2.44s-.08-.34-.21-.34-.35.21-.65.56-1 .52-2.05.61-6.34.09-6.91.09c-.21 0-.26-.13-.26-.44v-12c0-.31.09-.44.26-.44.48 0 5.22.05 6 .13 2.34.26 2.78.79 3.08 1.48a4.59 4.59 0 01.26 1.57c0 .34.09.56.35.56s.26-.26.3-.48c.09-.52.18-2.43.22-2.87.13-1.21.35-1.73.35-2s0-.39-.17-.39-.4.17-.61.22a13.49 13.49 0 01-1.95.22h-9.95L43.6.65h-3.13c-.48 0-.7.09-.7.35s.18.26.35.26a7.91 7.91 0 011.48.13c1.43.3 1.78 1 1.87 2.47s.08 2.61.08 9.39v7.65c0 4.17 0 7.6-.22 9.43-.17 1.26-.39 2.22-1.26 2.39a6.44 6.44 0 01-1.3.17c-.26 0-.35.13-.35.26s.22.35.7.35c.65 0 1.65-.09 2.52-.09h1.74c.65 0 1.69 0 3.39.13s4.08.13 7.34.13c1.7 0 2 0 2.35-1.13.21-.91.56-3.87.56-4.21s-.02-.74-.26-.74zm34.98 5.26a6.49 6.49 0 01-1.52-.26 4.69 4.69 0 01-2.56-2c-.91-1.18-8.35-13.82-9.17-15.17l7-10.42c1.26-1.86 2.08-3.12 3.34-3.52a4.89 4.89 0 011.44-.21c.3 0 .47-.13.47-.31s-.21-.3-.69-.3c-1.48 0-3.26.13-3.65.13S86.18.61 84.53.61c-.52 0-.74.13-.74.3s.13.31.39.31a5.14 5.14 0 011.31.13 1 1 0 01.74.78 3.47 3.47 0 01-.44 1.56c-.43.92-5.08 8.35-6.39 10.22-2.26-3.74-4-7-5.86-10.39a3.22 3.22 0 01-.44-1.43.72.72 0 01.52-.74 3.94 3.94 0 011.18-.13c.26 0 .39-.09.39-.31s-.13-.3-.74-.3c-1.48 0-3.7.13-4.09.13S66.5.61 65.28.61c-.57 0-.74.09-.74.3s.13.31.39.31a7.6 7.6 0 011.83.3C68.23 2 69.15 3.3 70.15 5l6.95 11.69-7.87 12.43c-1.39 2.21-2.3 3.17-3.6 3.52a7 7 0 01-1.65.21.31.31 0 00-.35.31c0 .17.08.3.43.3 1.44 0 3.57-.13 4-.13s3.13.13 4.17.13c.3 0 .52-.09.52-.3a.31.31 0 00-.35-.31 6.46 6.46 0 01-.82-.08.85.85 0 01-.7-.83 4.4 4.4 0 01.53-1.94l6.78-11.52c2.6 4.39 5.12 8.69 7.47 13 .39.7 0 1.13-.22 1.22a.33.33 0 00-.26.35c0 .21.22.3 1.35.34 2.22.09 4.3.09 7 .09.39 0 .61-.13.61-.35s-.14-.28-.4-.28zM127.15.61c-.82 0-4 .13-4.21.13s-1.74-.13-2.87-.13c-.44 0-.7.09-.7.26s.26.3.65.43.7.61.7 1.22a4.21 4.21 0 01-.72 2.22c-.87 1.43-6.39 11-7.21 12.77-.79-1.26-7.3-12.47-8-13.73a3.65 3.65 0 01-.56-1.69.88.88 0 01.56-.79c.39-.17.65-.21.65-.39s-.08-.3-.56-.3c-1.7 0-3.35.13-3.65.13s-3.5-.13-4.32-.13c-.4 0-.57.13-.57.3s.22.31.43.31a4.15 4.15 0 011.87.69 12.07 12.07 0 013 3.22c1.52 2.26 7.34 11.82 7.65 12.51a9.29 9.29 0 011 4.57v3.73c0 .7 0 2.52-.13 4.35-.09 1.26-.48 2.22-1.35 2.39a6.44 6.44 0 01-1.3.17c-.27 0-.35.13-.35.26s.22.35.69.35c1.31 0 4-.13 4.26-.13s3 .13 5.35.13c.47 0 .69-.13.69-.35s-.08-.26-.35-.26a18 18 0 01-2-.17c-1.3-.17-1.7-1.13-1.78-2.39-.13-1.83-.13-3.65-.13-4.35v-3.73a10.44 10.44 0 01.65-4.35A137 137 0 01122.85 4a8.3 8.3 0 012.3-2.21 4.09 4.09 0 012-.61c.35 0 .57-.13.57-.35s-.26-.22-.57-.22z"/></svg>