<svg viewBox="0 0 40.66 40.63"><path d="M20.38 13.74h17.91c.75 0 1-.19.93-.94V7.5C39.19 6 38.46 5.1 37 5.06c-2.21-.07-4.42 0-6.63 0-.43 0-.55.17-.53.55s0 1 0 1.52-.24.81-.73.82a.69.69 0 01-.74-.79V.78a.68.68 0 01.7-.78c.52 0 .7.37.72.82a14.89 14.89 0 010 1.89c-.06.69.13.93.87.91 2-.06 4 0 6 0 2.61 0 4 1.44 4 4v29a3.63 3.63 0 01-4 4H3.97a3.64 3.64 0 01-4-4V7.53a3.61 3.61 0 013.89-3.92h4.93c.6 0 .66.24.65.72s0 .76-.64.74C7.23 5 5.65 5 4.07 5c-1.84 0-2.63.84-2.63 2.69 0 1.67.06 3.35 0 5 0 .89.27 1 1.05 1 5.95.03 11.92.05 17.89.05zm-.07 1.47H2.41c-.76 0-1 .14-1 1v20.37c0 1.84.78 2.64 2.65 2.64h32.49c1.87 0 2.62-.78 2.63-2.66V16.19c0-.72-.15-.94-.91-.94-5.96-.02-11.96-.04-17.96-.04z"/><path d="M19.6 5c-2.05 0-4.1.06-6.15 0-1 0-1.23.29-1.1 1.17a4.91 4.91 0 010 .94c0 .48-.25.81-.74.8a.69.69 0 01-.73-.79V.77a.68.68 0 01.68-.77.7.7 0 01.79.75 18 18 0 010 2.08c0 .63.17.79.79.79h12.88c.51 0 .9 0 .86.71 0 .56-.14.75-.74.74C24 5 21.78 5 19.6 5zm-6.86 24.23l1.43-.23a3.09 3.09 0 00.83 1.79 2 2 0 001.44.53 2.33 2.33 0 001.7-.69 2.37 2.37 0 00.69-1.73 2.16 2.16 0 00-.64-1.62 2.21 2.21 0 00-1.64-.64 3.85 3.85 0 00-1 .16l.16-1.26h.23a2.94 2.94 0 001.64-.48 1.62 1.62 0 00.73-1.46 1.73 1.73 0 00-.53-1.3 1.89 1.89 0 00-1.38-.52 2 2 0 00-1.38.52 2.68 2.68 0 00-.72 1.57l-1.43-.25a3.7 3.7 0 011.19-2.22 3.43 3.43 0 012.31-.79 3.67 3.67 0 011.75.41 2.89 2.89 0 011.65 2.61 2.44 2.44 0 01-.4 1.37 2.75 2.75 0 01-1.2 1 2.69 2.69 0 011.6 1 3 3 0 01.57 1.88 3.44 3.44 0 01-1.11 2.58 3.91 3.91 0 01-2.8 1.06 3.64 3.64 0 01-2.54-.92 3.5 3.5 0 01-1.15-2.37z"/><path d="M20.22 26.57a10.4 10.4 0 01.43-3.32 4.06 4.06 0 011.26-1.94 3.19 3.19 0 012.1-.68 3.49 3.49 0 011.65.37 3.26 3.26 0 011.16 1.09 5.6 5.6 0 01.72 1.73 11.2 11.2 0 01.26 2.75 10.68 10.68 0 01-.42 3.3 4.12 4.12 0 01-1.25 1.94 3.22 3.22 0 01-2.13.69 3.18 3.18 0 01-2.64-1.21 7.68 7.68 0 01-1.14-4.72zm1.47 0c0 1.91.22 3.18.67 3.81a1.92 1.92 0 003.31 0 7.33 7.33 0 00.67-3.8 7.37 7.37 0 00-.67-3.82 2 2 0 00-1.67-.95 1.83 1.83 0 00-1.57.83 7.4 7.4 0 00-.74 3.93z"/></svg>