<svg viewBox="0 0 18.8 23.64"><path d="M18.39 6.22h-3.1c-.37 0-.46-.11-.44-.46a4.75 4.75 0 00-.14-1.55 5.2 5.2 0 00-3.94-4 5.22 5.22 0 00-5.43 1.61 5.29 5.29 0 00-1.4 4c0 .32-.07.41-.39.4H.45c-.34 0-.45.07-.45.44v16.55c0 .36.11.43.45.43h18c.32 0 .4-.08.39-.4V6.6c-.04-.33-.16-.38-.45-.38zM8.57 1.27a4.29 4.29 0 015.11 4.14c0 .82 0 .82-.78.82H5.52c-.34 0-.39-.12-.41-.43a4.32 4.32 0 013.46-4.53zm9 20.79c0 .33-.09.4-.4.4H1.64c-.33 0-.46-.06-.46-.43V7.81c0-.3.06-.42.39-.41h2.08c.23 0 .29.07.29.3v2.29c0 .23.06.31.31.32.88 0 .88 0 .88-.85V7.77c0-.27.06-.37.35-.37h7.89c.26 0 .34.08.34.34v2.21c0 .27.08.36.36.36.83 0 .83 0 .83-.82v-1.7c0-.33.11-.4.41-.39h1.91c.36 0 .44.1.44.45v13.32a8.77 8.77 0 00-.05.89z"/></svg>