<svg viewBox="0 0 30.24 28.91"><path d="M24.62 28.2c0 .7-.32.9-1 .54-1.5-.77-3-1.58-4.48-2.37-1.14-.6-2.3-1.18-3.42-1.82a1.13 1.13 0 00-1.26 0c-2.49 1.32-5 2.63-7.52 3.91a5 5 0 01-1.18.28 5.2 5.2 0 01-.11-1.29c.45-2.76.92-5.52 1.44-8.26a1.3 1.3 0 00-.47-1.35l-6-6a4.13 4.13 0 01-.55-1 4 4 0 011-.46c2.79-.41 5.6-.8 8.4-1.17a1.32 1.32 0 001.17-.84C11.88 5.8 13.16 3.24 14.46.7a3.62 3.62 0 01.7-.77 3.64 3.64 0 01.77.8c1.27 2.53 2.5 5.07 3.73 7.62a1.4 1.4 0 001.21.91c2.87.38 5.72.83 8.58 1.28.3.05.72.22.81.45s-.18.61-.4.82c-2 2-4.08 4-6.16 6a1.56 1.56 0 00-.51 1.62c.49 2.72.94 5.45 1.4 8.18 0 .22.01.39.03.59zm-17.85-.92c.42-.2.7-.32 1-.46 2.18-1.13 4.37-2.25 6.53-3.42a1.54 1.54 0 011.63 0c2.16 1.18 4.34 2.32 6.51 3.47l.9.46c0-.43 0-.71-.08-1-.4-2.36-.79-4.73-1.23-7.08a1.87 1.87 0 01.63-1.95c1.53-1.38 3-2.85 4.46-4.29.45-.44.88-.9 1.4-1.44l-.44-.08c-2.52-.38-5.05-.77-7.57-1.12a1.9 1.9 0 01-1.69-1.16C17.78 7 16.66 4.8 15.57 2.6c-.11-.23-.26-.45-.45-.78-1.31 2.63-2.53 5.18-3.83 7.61a1.76 1.76 0 01-1.07.79c-1.23.26-2.49.38-3.74.56l-4.75.69.75.8C4.26 14 6 15.78 7.81 17.51a1.35 1.35 0 01.43 1.39c-.5 2.71-.96 5.44-1.47 8.38z"/></svg>