<svg viewBox="0 0 39.12 39.12"><path d="M19.68 0a19.56 19.56 0 1019.44 19.77A19.56 19.56 0 0019.68 0zm-.15 37.48a17.92 17.92 0 1117.95-17.81 17.92 17.92 0 01-17.95 17.81z"/><path d="M24.11 19.56a7.59 7.59 0 00-4.46-.82h-1.72A4.1 4.1 0 0114 15.82a6 6 0 01-.17-2 4.07 4.07 0 013.94-4.06h3.58a4 4 0 013.8 3.24c.12.78.42.85 1.07.86s.71-.22.63-.76a5.69 5.69 0 00-5-4.89c-.49-.06-1.22.08-1.42-.2s-.14-1-.09-1.52-.14-.84-.82-.84-.95.17-.84.86c.05.34 0 .69 0 1s-.13.6-.6.6a5.68 5.68 0 00-5.27 3 6.92 6.92 0 00-.59 4.36 5.64 5.64 0 004.9 4.77c1.4.15 2.8 0 4.2.09a3.9 3.9 0 013 1.52 4.75 4.75 0 01.9 3.36 4 4 0 01-3.47 4 19.57 19.57 0 01-4.12 0 4 4 0 01-3.79-3.62c-.06-.36-.17-.48-.51-.44a2.57 2.57 0 01-.62 0c-.46-.06-.54.15-.5.55a5.55 5.55 0 00.9 2.57 5.68 5.68 0 005 2.6c.51 0 .63.16.59.62s0 .92 0 1.37c0 .3 0 .44.4.46 1.25.05 1.25.07 1.25-1.21a5 5 0 000-.55c-.06-.49.06-.69.64-.7a5.67 5.67 0 005.66-4.15 7.44 7.44 0 00.2-2.53 5.57 5.57 0 00-2.74-4.62z"/></svg>