<svg viewBox="0 0 21.19 24.18"><path d="M21.19 23.2c-.05-1.21 0-2.42 0-3.63A4.57 4.57 0 0016.6 15H4.43A4.4 4.4 0 000 19.56c0 1.18.05 2.35 0 3.53 0 .82.21 1.1 1.07 1.09 3.17-.05 6.34 0 9.5 0h9.61c.72 0 1.04-.18 1.01-.98zm-4.14-.55H2.53c-.81 0-1.09-.25-1-1 .06-.6 0-1.21 0-1.82a3 3 0 013.15-3.29c3.91-.05 7.83-.06 11.75 0a3.09 3.09 0 013.23 3.26c.01 3.51.5 2.79-2.61 2.85zm-6.73-9.15A6.75 6.75 0 1010.67 0a6.63 6.63 0 00-6.9 6.85 6.54 6.54 0 006.55 6.65zm.37-12a5.25 5.25 0 11-.24 10.5 5.15 5.15 0 01-5.1-5.31 5.14 5.14 0 015.34-5.18z"/></svg>