<svg viewBox="0 0 22.74 21.98"><path d="M3.93 17.93C4 20.25 4.27 21 5 21.21a6.32 6.32 0 001.42.17c.14 0 .22.06.22.17s-.16.23-.5.23c-1.62 0-2.75-.09-3-.09s-1.44.09-2.72.09c-.28 0-.45 0-.45-.23s.08-.17.23-.17a4.17 4.17 0 001.16-.17c.7-.2.84-1 .84-3.59V1.41C2.26.31 2.35 0 2.57 0s.71.62 1 .91c.43.48 4.64 5 9 9.7 2.8 3 5.88 6.44 6.79 7.38L19 3.62c0-1.84-.22-2.46-1.1-2.69a7.81 7.81 0 00-1.35-.14c-.2 0-.23-.08-.23-.2s.23-.19.56-.19c1.28 0 2.63.08 2.95.08S21.07.4 22.23.4c.31 0 .51 0 .51.19s-.11.2-.31.2a2.37 2.37 0 00-.68.09c-.93.19-1.05.82-1.05 2.51L20.65 20c0 1.86-.06 2-.26 2s-.56-.32-2.06-1.81c-.33-.31-4.39-4.46-7.33-7.69C7.66 9 4.47 5.4 3.56 4.38z"/></svg>