<svg viewBox="0 0 22.34 28.1"><path d="M21.86 7.39h-3.69c-.43 0-.54-.13-.51-.54A5.79 5.79 0 0017.49 5 6.22 6.22 0 0012.8.24a6.21 6.21 0 00-6.45 1.92 6.31 6.31 0 00-1.67 4.77c0 .38-.08.49-.46.48H.54c-.42 0-.54.09-.54.52v19.68c0 .43.13.51.54.51h21.33c.38 0 .47-.1.47-.47V7.87c0-.42-.13-.48-.48-.48zM10.18 1.52a5.09 5.09 0 016.08 4.91c0 1 0 1-.92 1H6.57c-.42 0-.48-.13-.5-.51a5.13 5.13 0 014.11-5.4zm10.75 24.71c0 .38-.1.47-.47.47H1.95c-.39 0-.55-.07-.55-.51V9.29c0-.36.07-.51.47-.49h2.47c.27 0 .35.09.34.35v2.72c0 .28.07.37.36.38 1.06 0 1 0 1-1v-2c0-.31.06-.43.41-.43h9.38c.31 0 .41.09.4.4v2.62c0 .33.08.43.42.43 1 0 1 0 1-1v-2c0-.4.12-.48.48-.47h2.27c.43 0 .53.11.53.53v15.84c0 .35-.03.71 0 1.06z"/></svg>