<svg viewBox="0 0 48.7 48.24"><path d="M48.66 23.21c-.58-3.55-1-7.12-1.72-10.65-.59-3-1.15-6-3.62-8.28C40 1.28 36 .42 31.84 0c-.77-.08-.95.51-1.17 1.15A6.58 6.58 0 0124.3 5.7 6.49 6.49 0 0118 1.1c-.28-.84-.67-1.18-1.53-1.1a26.27 26.27 0 00-5.7 1.12c-3.61 1.29-6.7 3.24-7.94 7.11C1.25 13.12.73 18.22 0 23.28c-.15 1.06.26 1.48 1.32 1.46 1.8 0 3.6.05 5.4 0 1-.05 1.35.2 1.34 1.3-.06 6.78 0 13.55 0 20.33 0 1.8.1 1.91 1.94 1.91h28.73c1.76 0 1.84-.09 1.84-1.85V26.1c0-1 .17-1.43 1.3-1.36 1.79.11 3.6 0 5.4 0 1.07.02 1.58-.37 1.39-1.53zM45.9 23c-1.42 0-2.84-.06-4.26 0-.91.05-1.1-.29-1.09-1.13.05-3.56 0-7.11 0-10.66a10.85 10.85 0 000-1.14.8.8 0 00-1.6 0v34.96c0 1.29-.35 1.55-1.57 1.54q-13.15-.08-26.31 0c-1.07 0-1.34-.28-1.33-1.34.06-5.73 0-11.47 0-17.2V10.57c0-.63-.08-1.22-.85-1.19s-.85.62-.84 1.24v11.37c0 .75-.1 1.11-1 1.07-1.52-.08-3 0-4.55 0-.62 0-.82-.14-.71-.81C2.51 18.19 3 14.11 4 10.1a9.58 9.58 0 015.87-6.8 20.81 20.81 0 015.75-1.48c.58-.08.78.06 1 .59a8.11 8.11 0 007.63 5 8.12 8.12 0 007.74-5c.2-.42.35-.65.92-.57a22.16 22.16 0 015.88 1.53A9.47 9.47 0 0144.65 10c1 4 1.54 8.08 2.14 12.15.13.9-.24.9-.89.85z"/></svg>