<svg viewBox="0 0 67.59 30.38"><path d="M67.58 16.17a3.54 3.54 0 00-.28-1.5 499.74 499.74 0 01-3.6-8.23 1.44 1.44 0 00-1.56-1h-5.69c-1.18 0-2.72.5-3.44-.2s-.17-2.24-.25-3.47a.49.49 0 010-.12C52.74.13 52.64 0 51.15 0H18.64c-1 0-1.4.37-1.45 1.37-.16 2.8-.4 5.59-.6 8.39-.36 4.87-.69 9.76-1.08 14.63-.08 1.06.34 1.44 1.35 1.41h3.55c.71 0 1.11.11 1.36.91a5.41 5.41 0 0010.26 0c.26-.81.66-.9 1.35-.89h12.1a1.15 1.15 0 011.35.91A5.34 5.34 0 0052 30.38a5.4 5.4 0 005.12-3.71 1.09 1.09 0 011.25-.89h7.83c1.07 0 1.47-.39 1.44-1.47-.1-2.7-.07-5.42-.06-8.14zM26.85 28.76A3.75 3.75 0 0123.1 25a3.81 3.81 0 013.74-3.81A3.86 3.86 0 0130.73 25a3.8 3.8 0 01-3.88 3.76zm20-5.39a1 1 0 01-1.13.85H33.26a1 1 0 01-1.16-.82 5.42 5.42 0 00-5.14-3.85 5.36 5.36 0 00-5.15 3.82 1 1 0 01-1.28.84c-1-.08-2.43.44-3.09-.2s-.07-2 0-3.06c.41-5.95.87-11.89 1.25-17.83.08-1.14.35-1.6 1.64-1.58 4.91.09 9.81 0 14.71 0h15c.89 0 1.23.17 1.22 1.15-.06 5.29 0 10.58 0 15.87 0 .74-.16 1.08-.93 1.31a5 5 0 00-3.52 3.5zm5 5.39A3.83 3.83 0 0148.1 25a3.84 3.84 0 117.67.07 3.78 3.78 0 01-3.92 3.69zM65 24.22h-6.76c-.64 0-1-.14-1.16-.81a5.08 5.08 0 00-3.61-3.59.85.85 0 01-.73-1V7.95c0-.67.21-.9.88-.88h7.7a1.12 1.12 0 011.25.78c1 2.43 2.11 4.83 3.18 7.24a3.07 3.07 0 01.25 1.28v6.86c0 .77-.22 1.01-1 .99zM12.67 6.27c.55 0 1.21.05 1.26-.72s-.66-.86-1.25-.86H1.21c-.57 0-1.21 0-1.21.79s.62.79 1.2.79h11.47zm.16 7.42c.53 0 1.1-.08 1.11-.78s-.52-.8-1.07-.8H4.22c-.56 0-1.09.08-1.11.77s.53.8 1.07.8h4.27zm.06 5.81H7.33c-.53 0-1.1.11-1.11.78s.61.82 1.18.83h5.44c.53 0 1.09-.11 1.11-.78s-.52-.83-1.06-.83z"/></svg>