<svg viewBox="0 0 20.84 23.78"><path d="M20.82 19.25a4.48 4.48 0 00-4.5-4.47q-6-.06-12 0A4.33 4.33 0 000 19.24c0 1.15.05 2.31 0 3.47 0 .81.2 1.09 1.05 1.07 3.12-.05 6.23 0 9.35 0h9.45c.71 0 1-.21 1-1-.06-1.15 0-2.34-.03-3.53zm-4.05 3H2.48c-.8 0-1.07-.24-1-1 .05-.59 0-1.19 0-1.79a3 3 0 013.09-3.23c3.85-.05 7.71-.06 11.56 0a3 3 0 013.18 3.21c.04 3.49.52 2.78-2.54 2.84zm-6.62-8.97A6.64 6.64 0 1010.49 0a6.52 6.52 0 00-6.78 6.74 6.43 6.43 0 006.44 6.54zm.36-11.8a5.17 5.17 0 11-.23 10.33 5.06 5.06 0 01-5-5.23 5 5 0 015.23-5.1z"/></svg>