<svg viewBox="0 0 24.91 21.52"><path d="M24.89 7.27a8 8 0 00-2.6-5.5 6.57 6.57 0 00-8.47-.4 8.33 8.33 0 00-1.36 1.42c-.1-.12-.18-.22-.25-.32A6.51 6.51 0 004.34.61 7.53 7.53 0 00.49 5a6.29 6.29 0 00.44 5.72 17.11 17.11 0 002 2.79 50.46 50.46 0 008.91 7.79 1 1 0 001.29-.05 55.88 55.88 0 007.65-6.41 19.25 19.25 0 003.34-4.38 5.71 5.71 0 00.77-3.19zm-2.21 2.93a22.54 22.54 0 01-2.2 2.92 51.77 51.77 0 01-7.77 6.72c-.14.1-.26.19-.45.05A46.62 46.62 0 013.47 12a14 14 0 01-1.38-2 4.93 4.93 0 01-.35-4.3 6.19 6.19 0 013.19-3.82 5.82 5.82 0 012.57-.49 4.88 4.88 0 014.09 2.67c.21.36.34.82.87.83s.64-.44.84-.79a5.12 5.12 0 017.08-2c2.55 1.43 4.18 5.29 2.3 8.1z"/></svg>