<svg xmlns="http://www.w3.org/2000/svg" viewBox="0 0 28.1 22.61"><defs><style>.cls-1{fill:#3c3c3b;}</style></defs><title>blusas</title><g id="Camada_2" data-name="Camada 2"><g id="Camada_1-2" data-name="Camada 1"><path class="cls-1" d="M5.69,9.11l-3.75.78c-.53.11-.69,0-.81-.51C.77,7.72.42,6.07.06,4.41-.07,3.8,0,3.72.55,3.49,3,2.54,5.38,1.65,7.74.62A6.83,6.83,0,0,1,11.6.16,22.94,22.94,0,0,0,17.9,0a2.49,2.49,0,0,1,1.15.12c2.83,1.1,5.65,2.23,8.48,3.34.6.24.64.33.51,1-.35,1.62-.7,3.25-1.06,4.87-.13.61-.26.69-.89.56l-3.68-.76V21.79c0,.72-.09.82-.82.82H6.51c-.74,0-.82-.08-.82-.82V9.11ZM18.88,1a4.76,4.76,0,0,1-4.07,4.08C11.78,5.4,10,3.89,9.19,1L.93,4.29c.35,1.6.69,3.14,1,4.69l3.74-.77c.75-.15.88-.06.88.71V21.7h15V8.88c0-.69.16-.82.83-.68l3.8.79c.34-1.59.68-3.15,1-4.7ZM10.18.9c0,1.74,1.88,3.35,3.83,3.37A3.84,3.84,0,0,0,17.92.9,27.49,27.49,0,0,1,10.18.9Z"/></g></g></svg>