<svg xmlns="http://www.w3.org/2000/svg" viewBox="0 0 24.46 27.08"><defs><style>.cls-1{fill:#3c3c3b;}</style></defs><title>casacos</title><g id="Camada_2" data-name="Camada 2"><g id="Camada_1-2" data-name="Camada 1"><path class="cls-1" d="M18.75,13.62c0,1.65,0,3.34,0,5,0,2.12.07,4.25.13,6.37a.71.71,0,0,1-.45.74A11.6,11.6,0,0,1,14.32,27a16.53,16.53,0,0,1-6.71-.54c-.53-.17-1-.44-1.53-.65a.72.72,0,0,1-.5-.8c.08-3.63.14-7.26.21-10.89v-.47l-.12,0c-.31,1.11-.64,2.22-.92,3.34-.19.76-.32,1.52-.48,2.28-.11.51-.31.67-.79.57-1-.22-2-.46-3-.7A.56.56,0,0,1,0,18.32c.62-2.39,1.12-4.82,1.87-7.16C2.59,9,3.55,7,4.39,4.89c.16-.39.34-.78.49-1.18a1.45,1.45,0,0,1,1.24-1,3.94,3.94,0,0,0,3.17-2A1.48,1.48,0,0,1,10.68,0h3.14a1.4,1.4,0,0,1,1.31.61,4,4,0,0,0,3.24,2.06,1.45,1.45,0,0,1,1.21,1c.93,2.28,2,4.54,2.78,6.86.59,1.65.94,3.38,1.39,5.08.22.84.44,1.69.65,2.53.15.6,0,.8-.58.95l-2.63.62c-.69.17-.9,0-1-.65a33.33,33.33,0,0,0-1.34-5.29ZM18,16.07v-.56C18,14,18,12.56,18,11.09c0-.16.17-.32.27-.47.13.1.34.19.38.32q.91,3,1.78,6c.11.4.17.82.26,1.28l2.92-.69c-.59-2.23-1-4.47-1.79-6.62C21,8.55,19.92,6.25,19,3.93a1,1,0,0,0-.49-.53c-.57-.2-1.18-.31-1.82-.47.06.47.1.86.14,1.25.13,1.18.08,1.06-.89,1,0,0,0,0-.09.07.42.3.31.59,0,1q-1.9,2.49-3.77,5a1.49,1.49,0,0,0-.27.82c0,4.61,0,9.22,0,13.84v.57L14,26.33a9.89,9.89,0,0,0,3.92-1c.14-.07.33-.25.33-.38,0-.85,0-1.71,0-2.62-.69,0-1.27,0-1.85,0a1.57,1.57,0,0,1-1.61-1.68V16.7c0-.57.07-.63.64-.63C16.27,16.06,17.13,16.07,18,16.07ZM7.81,3a8.81,8.81,0,0,1-1.07.24A1.58,1.58,0,0,0,5.3,4.41C4.11,7.58,2.53,10.6,1.82,13.94c-.25,1.2-.59,2.39-.91,3.61l2.85.67A1.44,1.44,0,0,0,3.85,18,54.18,54.18,0,0,1,5.8,11.07c0-.18.29-.3.44-.45.09.19.26.38.26.58,0,1.1,0,2.21,0,3.32,0,.51,0,1,0,1.55H9.14c.4,0,.57.15.56.57,0,1.25-.06,2.5,0,3.75A1.7,1.7,0,0,1,7.79,22.3c-.49,0-1,0-1.53,0,0,.93,0,1.79,0,2.64a.52.52,0,0,0,.3.35,20.83,20.83,0,0,0,2.37.83,18.35,18.35,0,0,0,2.17.28v-.68c0-4.4,0-8.81,0-13.22a4.5,4.5,0,0,1,.34-2,.6.6,0,0,0-.11-.69c-.9-1.16-1.76-2.36-2.67-3.52-.28-.37-.45-.68.07-1.07H8.27c-.63,0-.68,0-.61-.68S7.76,3.51,7.81,3Zm4,6.34.1,0-.12-.45C11.26,7.38,10.8,6,10.28,4.54A4.34,4.34,0,0,1,10,2.72,1.59,1.59,0,0,1,11.41,1.2a5.36,5.36,0,0,1,1.65,0,2,2,0,0,1,1,.65A2.17,2.17,0,0,1,14.33,4c-.51,1.65-1.09,3.27-1.65,4.91,0,.14-.09.29-.14.44l.08,0,2.71-3.61a5.44,5.44,0,0,1-.54-.52,4.63,4.63,0,0,1-.31-.58,3.28,3.28,0,0,1,.68-.19,9.09,9.09,0,0,1,.93.06A3.52,3.52,0,0,0,15,1.45c-.14-.12-.22-.32-.37-.43a1.8,1.8,0,0,0-.73-.34c-.73,0-1.47.06-2.18,0A2.63,2.63,0,0,0,9.13,1.83a4.52,4.52,0,0,0-.8,2.72c.45,0,.84-.07,1.23-.08.14,0,.36.09.39.19a.57.57,0,0,1-.13.44,8.91,8.91,0,0,1-.69.68ZM12.18,8l.11,0c.45-1.33.93-2.65,1.34-4a3.81,3.81,0,0,0,.11-1.35A.8.8,0,0,0,13,1.88a5.29,5.29,0,0,0-1.59,0,1.18,1.18,0,0,0-.69.68,1.62,1.62,0,0,0,0,1C11.17,5.09,11.68,6.55,12.18,8Zm5.9,9.59c-.85,0-1.64,0-2.42,0-.09,0-.23.2-.23.31,0,.91,0,1.83,0,2.75a.82.82,0,0,0,.75.89c.64.05,1.28,0,1.91,0Zm-11.73,4h.93c1.66,0,1.75-.09,1.75-1.73v-2.3c-.84,0-1.61,0-2.39,0-.09,0-.25.21-.26.32,0,.57,0,1.14,0,1.71ZM.82,18.08l-.13.14c.09.1.17.26.29.29.78.21,1.56.39,2.35.56.11,0,.26-.1.38-.16l0-.16Zm20,1.06c1-.24,1.88-.43,2.72-.64.07,0,.11-.15.16-.23s-.17-.16-.23-.14c-.85.18-1.69.38-2.53.59a.31.31,0,0,0-.16.22A.38.38,0,0,0,20.86,19.14Zm-2.77-2.28L18,16.73H15.66c-.08,0-.15.1-.23.15.08.07.16.19.25.19.71,0,1.41,0,2.12,0C17.9,17.08,18,16.94,18.09,16.86ZM9,16.75H6.44l-.06.14c.12.07.24.19.36.19C8.49,17.2,8.94,17.13,9,16.75Z"/><path class="cls-1" d="M12.93,13.41c.12.18.36.39.33.55a.69.69,0,0,1-.48.43c-.12,0-.4-.27-.41-.44s.21-.36.33-.54Z"/><path class="cls-1" d="M13.36,22.4c-.2.11-.38.3-.59.31a.37.37,0,0,1-.41-.48.65.65,0,0,1,.46-.41c.19,0,.37.23.55.37Z"/><path class="cls-1" d="M13.36,18.21c-.18.12-.37.34-.55.33s-.46-.28-.44-.4a.68.68,0,0,1,.43-.47c.16,0,.37.2.56.32Z"/></g></g></svg>