<svg xmlns="http://www.w3.org/2000/svg" viewBox="0 0 27.36 18.9"><defs><style>.cls-1{fill:#3c3c3b;}</style></defs><title>contato</title><g id="Camada_2" data-name="Camada 2"><g id="Camada_1-2" data-name="Camada 1"><path class="cls-1" d="M13.75,0H24.37a2.69,2.69,0,0,1,3,3V16a2.63,2.63,0,0,1-2.78,2.86q-10.89,0-21.79,0A2.63,2.63,0,0,1,0,16C0,11.68.07,7.33,0,3A2.86,2.86,0,0,1,3,0C6.6.07,10.17,0,13.75,0ZM25.24,1.49c-.63-.24-22.59-.21-23.06,0l.19.2,10.4,9.58a1.22,1.22,0,0,0,1.89,0L19.18,7.1C21.19,5.25,23.19,3.39,25.24,1.49ZM2.64,17.55H24.75l-7.26-7.1-2,1.82a2.51,2.51,0,0,1-3.6,0l-2-1.8ZM1.4,16.76l.16,0L9,9.58l-7.58-7Zm17-7.19,7.43,7.23.13-.06V2.59Z"/></g></g></svg>