<svg xmlns="http://www.w3.org/2000/svg" viewBox="0 0 21.19 24.18"><defs><style>.cls-1{fill:#3c3c3b;}</style></defs><title>login</title><g id="Camada_2" data-name="Camada 2"><g id="Camada_1-2" data-name="Camada 1"><path class="cls-1" d="M21.19,23.2c-.05-1.21,0-2.42,0-3.63A4.57,4.57,0,0,0,16.6,15c-4.06,0-8.12,0-12.17,0A4.4,4.4,0,0,0,0,19.56c0,1.18.05,2.35,0,3.53,0,.82.21,1.1,1.07,1.09,3.17-.05,6.34,0,9.5,0s6.41,0,9.61,0C20.9,24.18,21.22,24,21.19,23.2Zm-4.14-.55c-2.17,0-4.35,0-6.52,0-2.67,0-5.34,0-8,0-.81,0-1.09-.25-1-1,.06-.6,0-1.21,0-1.82a3,3,0,0,1,3.15-3.29c3.91-.05,7.83-.06,11.75,0a3.09,3.09,0,0,1,3.23,3.26C19.67,23.31,20.16,22.59,17.05,22.65Z"/><path class="cls-1" d="M10.32,13.5A6.75,6.75,0,1,0,10.67,0a6.63,6.63,0,0,0-6.9,6.85A6.54,6.54,0,0,0,10.32,13.5Zm.37-12A5.25,5.25,0,1,1,10.45,12a5.15,5.15,0,0,1-5.1-5.31A5.14,5.14,0,0,1,10.69,1.51Z"/></g></g></svg>