<svg xmlns="http://www.w3.org/2000/svg" viewBox="0 0 22.34 28.1"><defs><style>.cls-1{fill:#3c3c3b;}</style></defs><title>pedidos</title><g id="Camada_2" data-name="Camada 2"><g id="Camada_1-2" data-name="Camada 1"><path class="cls-1" d="M21.86,7.39c-1.23,0-2.46,0-3.69,0-.43,0-.54-.13-.51-.54A5.79,5.79,0,0,0,17.49,5,6.22,6.22,0,0,0,12.8.24,6.21,6.21,0,0,0,6.35,2.16,6.31,6.31,0,0,0,4.68,6.93c0,.38-.08.49-.46.48-1.23,0-2.46,0-3.68,0-.42,0-.54.09-.54.52q0,9.84,0,19.68c0,.43.13.51.54.51H21.87c.38,0,.47-.1.47-.47q0-9.89,0-19.78C22.34,7.45,22.21,7.39,21.86,7.39ZM10.18,1.52a5.09,5.09,0,0,1,6.08,4.91c0,1,0,1-.92,1H11.15c-1.53,0-3.06,0-4.58,0-.42,0-.48-.13-.5-.51A5.13,5.13,0,0,1,10.18,1.52ZM20.93,26.23c0,.38-.1.47-.47.47-2.93,0-5.85,0-8.78,0h-.5c-3.08,0-6.15,0-9.23,0-.39,0-.55-.07-.55-.51,0-5.64,0-11.27,0-16.9,0-.36.07-.51.47-.49.82,0,1.65,0,2.47,0,.27,0,.35.09.34.35,0,.91,0,1.81,0,2.72,0,.28.07.37.36.38,1.06,0,1,0,1-1,0-.67,0-1.34,0-2,0-.31.06-.43.41-.43h9.38c.31,0,.41.09.4.4,0,.87,0,1.75,0,2.62,0,.33.08.43.42.43,1,0,1,0,1-1,0-.67,0-1.34,0-2,0-.4.12-.48.48-.47.76,0,1.52,0,2.27,0,.43,0,.53.11.53.53,0,5.28,0,10.56,0,15.84C20.93,25.52,20.9,25.88,20.93,26.23Z"/></g></g></svg>