<svg xmlns="http://www.w3.org/2000/svg" viewBox="0 0 30.55 30.5"><defs><style>.cls-1{fill:#3c3c3b;}</style></defs><title>promocoes</title><g id="Camada_2" data-name="Camada 2"><g id="Camada_1-2" data-name="Camada 1"><path class="cls-1" d="M7.83,1.87l2.11.61c.7.19,1.48.64,2.1.48s1-.93,1.52-1.44L14.64.41c.53-.54.81-.55,1.33,0,.74.77,1.49,1.54,2.22,2.33a.7.7,0,0,0,.86.24c1-.32,2-.58,3-.87.86-.24,1.05-.12,1.26.75s.49,1.95.7,2.93a.85.85,0,0,0,.77.76c1,.22,2,.47,3,.72.78.2.9.42.68,1.2-.28,1-.52,1.93-.85,2.88A1,1,0,0,0,28,12.55c.72.63,1.4,1.32,2.08,2s.68.83,0,1.5-1.37,1.35-2.09,2a.93.93,0,0,0-.34,1.15c.34,1,.6,2,.88,3,.18.66.06.9-.61,1.07-1,.26-2,.51-3.06.73a.89.89,0,0,0-.81.79c-.21,1-.52,2.08-.76,3.12-.14.6-.49.75-1,.58-1.07-.31-2.13-.65-3.22-.92a1,1,0,0,0-.79.21c-.79.76-1.53,1.57-2.29,2.35-.49.51-.79.5-1.28,0-.76-.79-1.5-1.6-2.29-2.36a1,1,0,0,0-.79-.22c-1.06.26-2.11.59-3.16.89-.7.19-.94.06-1.11-.63-.27-1.06-.55-2.12-.77-3.19A.7.7,0,0,0,5.84,24c-1.06-.26-2.11-.54-3.18-.78-.64-.15-.79-.51-.61-1.08C2.36,21.08,2.64,20,3,19a.71.71,0,0,0-.22-.87C2,17.39,1.2,16.64.44,15.89c-.59-.57-.59-.79,0-1.37C1.23,13.78,2,13,2.79,12.31A.66.66,0,0,0,3,11.5c-.33-1.05-.62-2.1-.91-3.15-.2-.7-.06-.94.63-1.12,1-.26,2.08-.54,3.12-.75a.81.81,0,0,0,.72-.73c.23-1,.48-2.08.77-3.11A3,3,0,0,1,7.83,1.87Zm.55,25.26c1.15-.32,2.2-.6,3.24-.93a1.15,1.15,0,0,1,1.31.35c.79.78,1.65,1.49,2.36,2.13.69-.63,1.53-1.37,2.32-2.15a1.1,1.1,0,0,1,1.26-.32c1.05.34,2.13.62,3.25.95.27-1.06.58-2.06.76-3.08a1.3,1.3,0,0,1,1.21-1.19c1-.2,2-.49,3.07-.75-.29-1-.52-2-.85-2.9a1.47,1.47,0,0,1,.49-1.87c.78-.63,1.46-1.36,2.11-2a25.76,25.76,0,0,0-2-2.13,1.58,1.58,0,0,1-.55-2c.35-.9.55-1.86.83-2.83-1.1-.27-2.11-.55-3.13-.76a1.25,1.25,0,0,1-1.12-1.12c-.2-1-.49-2.06-.76-3.15-1,.29-2,.51-2.94.85a1.45,1.45,0,0,1-1.81-.47,27.6,27.6,0,0,0-2.14-1.93c-.72.66-1.57,1.4-2.36,2.17a1.06,1.06,0,0,1-1.2.31c-1.07-.34-2.16-.63-3.29-1-.27,1.08-.57,2.08-.76,3.11A1.29,1.29,0,0,1,6.51,7.61c-1,.21-2.06.49-3.12.75.3,1.06.55,2.06.89,3A1.37,1.37,0,0,1,3.85,13c-.75.72-1.39,1.56-2,2.22.57.64,1.24,1.48,2,2.22A1.28,1.28,0,0,1,4.28,19c-.35,1-.61,2-.92,3.1,1.14.28,2.22.56,3.3.81a1.05,1.05,0,0,1,.91.91C7.79,24.91,8.1,26,8.38,27.13Z"/><path class="cls-1" d="M19.86,9.94c.58,0,.85.48.64.88a1.67,1.67,0,0,1-.38.46l-8.79,8.79c-.13.13-.25.33-.4.34a1,1,0,0,1-.77-.1c-.13-.14-.08-.51,0-.76s.23-.26.35-.39l8.75-8.74A7.1,7.1,0,0,1,19.86,9.94Z"/><path class="cls-1" d="M14.5,12.36a2.14,2.14,0,0,1-2.2,2.11,2.21,2.21,0,0,1-2.16-2.18,2.17,2.17,0,0,1,2.19-2.14A2.13,2.13,0,0,1,14.5,12.36Zm-2.19-1a.93.93,0,0,0-.91.95,1,1,0,0,0,1,.91,1,1,0,0,0,.92-1A1,1,0,0,0,12.31,11.38Z"/><path class="cls-1" d="M18.22,16a2.15,2.15,0,0,1,2.18,2.14,2.18,2.18,0,1,1-4.36,0A2.15,2.15,0,0,1,18.22,16Zm0,3.09a1,1,0,0,0,1-.92,1,1,0,0,0-.93-.93.91.91,0,0,0-.95.9A.94.94,0,0,0,18.2,19.12Z"/></g></g></svg>