<svg xmlns="http://www.w3.org/2000/svg" viewBox="0 0 31.17 28"><defs><style>.cls-1{fill:#3c3c3b;}</style></defs><title>segundapele</title><g id="Camada_2" data-name="Camada 2"><g id="Camada_1-2" data-name="Camada 1"><path class="cls-1" d="M31.17,24l-4.59,1.64q-1.23-6.13-2.44-12.22H24V28H7.61V13.18l-.13,0c-1,4.39-1.93,8.77-2.91,13.22L0,24.72c.37-1.75.72-3.47,1.09-5.19C2.2,14.29,3.33,9.06,4.41,3.81a4.3,4.3,0,0,1,2-2.54A6.59,6.59,0,0,1,10.54,0C14,0,17.53,0,21,0A7.09,7.09,0,0,1,25.58,1.5a4.74,4.74,0,0,1,1.83,3c1.17,6.29,2.43,12.57,3.66,18.85ZM19.77.78C19.24,3.07,18,4.37,16.11,4.5a3.52,3.52,0,0,1-2.36-.64A4.49,4.49,0,0,1,11.92.69H10.49a6.05,6.05,0,0,0-5,2.43,1.76,1.76,0,0,0-.31.73q-1.86,8.72-3.7,17.42c-.21,1-.42,2-.62,3l3.26,1.18C5.44,19.19,6.81,13,8.18,6.74h.1V27.28H23.35V9.5L24,9.43c1,5.13,2,10.2,3.06,15.33l3.29-1.18c-1.3-6.66-2.57-13.23-3.87-19.79A1.88,1.88,0,0,0,26.14,3,6.53,6.53,0,0,0,19.77.78Zm-7,0a3.11,3.11,0,0,0,6.21,0Z"/></g></g></svg>