<svg class="svg-sprites" id="skin-sprite" xmlns="http://www.w3.org/2000/svg" xmlns:xlink="http://www.w3.org/1999/xlink">
    <symbol viewBox="0 0 127.72 33.77" id="nexy"><path d="M34.16.61c-1.78 0-3.22.13-3.7.13S27.9.61 25.94.61c-.52 0-.87 0-.87.3s.05.31.35.31a11.76 11.76 0 012.13.21c1.35.35 1.65 1.31 1.7 4.13l.47 22.08C28.33 26.2 23.6 20.9 19.29 16.3 12.6 9.13 6.13 2.13 5.48 1.39 5 1 4.3 0 4 0s-.47.48-.47 2.17v24.9c0 4-.21 5.22-1.3 5.52a6.11 6.11 0 01-1.78.26c-.22 0-.35.09-.35.26s.26.35.7.35c2 0 3.78-.13 4.17-.13s2.13.13 4.6.13c.52 0 .79-.09.79-.35s-.13-.26-.35-.26a9.32 9.32 0 01-2.17-.26c-1.18-.35-1.61-1.48-1.7-5L5.48 6.74c1.39 1.56 6.3 7 11.34 12.47 4.6 4.95 10.86 11.34 11.34 11.79 2.3 2.31 2.82 2.79 3.17 2.79s.39-.22.39-3.09l.09-25.47c0-2.6.17-3.56 1.61-3.86a3.81 3.81 0 011-.13c.31 0 .48-.13.48-.31s-.26-.32-.74-.32zm24.6 26.98c-.22 0-.3.18-.39.66-.3 1.78-.82 2.65-1.95 3.13a12.71 12.71 0 01-4.18.47c-4.26 0-4.91-.56-5-3.56V17a.28.28 0 01.31-.3c.74 0 5 .09 6.21.22 1.7.17 2.09.91 2.26 1.52a4.51 4.51 0 01.17 1.43c0 .22.09.39.31.39s.3-.47.3-.82.09-1.91.18-2.78c.13-1.44.34-2.18.34-2.44s-.08-.34-.21-.34-.35.21-.65.56-1 .52-2.05.61-6.34.09-6.91.09c-.21 0-.26-.13-.26-.44v-12c0-.31.09-.44.26-.44.48 0 5.22.05 6 .13 2.34.26 2.78.79 3.08 1.48a4.59 4.59 0 01.26 1.57c0 .34.09.56.35.56s.26-.26.3-.48c.09-.52.18-2.43.22-2.87.13-1.21.35-1.73.35-2s0-.39-.17-.39-.4.17-.61.22a13.49 13.49 0 01-1.95.22h-9.95L43.6.65h-3.13c-.48 0-.7.09-.7.35s.18.26.35.26a7.91 7.91 0 011.48.13c1.43.3 1.78 1 1.87 2.47s.08 2.61.08 9.39v7.65c0 4.17 0 7.6-.22 9.43-.17 1.26-.39 2.22-1.26 2.39a6.44 6.44 0 01-1.3.17c-.26 0-.35.13-.35.26s.22.35.7.35c.65 0 1.65-.09 2.52-.09h1.74c.65 0 1.69 0 3.39.13s4.08.13 7.34.13c1.7 0 2 0 2.35-1.13.21-.91.56-3.87.56-4.21s-.02-.74-.26-.74zm34.98 5.26a6.49 6.49 0 01-1.52-.26 4.69 4.69 0 01-2.56-2c-.91-1.18-8.35-13.82-9.17-15.17l7-10.42c1.26-1.86 2.08-3.12 3.34-3.52a4.89 4.89 0 011.44-.21c.3 0 .47-.13.47-.31s-.21-.3-.69-.3c-1.48 0-3.26.13-3.65.13S86.18.61 84.53.61c-.52 0-.74.13-.74.3s.13.31.39.31a5.14 5.14 0 011.31.13 1 1 0 01.74.78 3.47 3.47 0 01-.44 1.56c-.43.92-5.08 8.35-6.39 10.22-2.26-3.74-4-7-5.86-10.39a3.22 3.22 0 01-.44-1.43.72.72 0 01.52-.74 3.94 3.94 0 011.18-.13c.26 0 .39-.09.39-.31s-.13-.3-.74-.3c-1.48 0-3.7.13-4.09.13S66.5.61 65.28.61c-.57 0-.74.09-.74.3s.13.31.39.31a7.6 7.6 0 011.83.3C68.23 2 69.15 3.3 70.15 5l6.95 11.69-7.87 12.43c-1.39 2.21-2.3 3.17-3.6 3.52a7 7 0 01-1.65.21.31.31 0 00-.35.31c0 .17.08.3.43.3 1.44 0 3.57-.13 4-.13s3.13.13 4.17.13c.3 0 .52-.09.52-.3a.31.31 0 00-.35-.31 6.46 6.46 0 01-.82-.08.85.85 0 01-.7-.83 4.4 4.4 0 01.53-1.94l6.78-11.52c2.6 4.39 5.12 8.69 7.47 13 .39.7 0 1.13-.22 1.22a.33.33 0 00-.26.35c0 .21.22.3 1.35.34 2.22.09 4.3.09 7 .09.39 0 .61-.13.61-.35s-.14-.28-.4-.28zM127.15.61c-.82 0-4 .13-4.21.13s-1.74-.13-2.87-.13c-.44 0-.7.09-.7.26s.26.3.65.43.7.61.7 1.22a4.21 4.21 0 01-.72 2.22c-.87 1.43-6.39 11-7.21 12.77-.79-1.26-7.3-12.47-8-13.73a3.65 3.65 0 01-.56-1.69.88.88 0 01.56-.79c.39-.17.65-.21.65-.39s-.08-.3-.56-.3c-1.7 0-3.35.13-3.65.13s-3.5-.13-4.32-.13c-.4 0-.57.13-.57.3s.22.31.43.31a4.15 4.15 0 011.87.69 12.07 12.07 0 013 3.22c1.52 2.26 7.34 11.82 7.65 12.51a9.29 9.29 0 011 4.57v3.73c0 .7 0 2.52-.13 4.35-.09 1.26-.48 2.22-1.35 2.39a6.44 6.44 0 01-1.3.17c-.27 0-.35.13-.35.26s.22.35.69.35c1.31 0 4-.13 4.26-.13s3 .13 5.35.13c.47 0 .69-.13.69-.35s-.08-.26-.35-.26a18 18 0 01-2-.17c-1.3-.17-1.7-1.13-1.78-2.39-.13-1.83-.13-3.65-.13-4.35v-3.73a10.44 10.44 0 01.65-4.35A137 137 0 01122.85 4a8.3 8.3 0 012.3-2.21 4.09 4.09 0 012-.61c.35 0 .57-.13.57-.35s-.26-.22-.57-.22z"/></symbol>
    <symbol viewBox="0 0 40.66 40.63" id="z-calendar"><path d="M20.38 13.74h17.91c.75 0 1-.19.93-.94V7.5C39.19 6 38.46 5.1 37 5.06c-2.21-.07-4.42 0-6.63 0-.43 0-.55.17-.53.55s0 1 0 1.52-.24.81-.73.82a.69.69 0 01-.74-.79V.78a.68.68 0 01.7-.78c.52 0 .7.37.72.82a14.89 14.89 0 010 1.89c-.06.69.13.93.87.91 2-.06 4 0 6 0 2.61 0 4 1.44 4 4v29a3.63 3.63 0 01-4 4H3.97a3.64 3.64 0 01-4-4V7.53a3.61 3.61 0 013.89-3.92h4.93c.6 0 .66.24.65.72s0 .76-.64.74C7.23 5 5.65 5 4.07 5c-1.84 0-2.63.84-2.63 2.69 0 1.67.06 3.35 0 5 0 .89.27 1 1.05 1 5.95.03 11.92.05 17.89.05zm-.07 1.47H2.41c-.76 0-1 .14-1 1v20.37c0 1.84.78 2.64 2.65 2.64h32.49c1.87 0 2.62-.78 2.63-2.66V16.19c0-.72-.15-.94-.91-.94-5.96-.02-11.96-.04-17.96-.04z"/><path d="M19.6 5c-2.05 0-4.1.06-6.15 0-1 0-1.23.29-1.1 1.17a4.91 4.91 0 010 .94c0 .48-.25.81-.74.8a.69.69 0 01-.73-.79V.77a.68.68 0 01.68-.77.7.7 0 01.79.75 18 18 0 010 2.08c0 .63.17.79.79.79h12.88c.51 0 .9 0 .86.71 0 .56-.14.75-.74.74C24 5 21.78 5 19.6 5zm-6.86 24.23l1.43-.23a3.09 3.09 0 00.83 1.79 2 2 0 001.44.53 2.33 2.33 0 001.7-.69 2.37 2.37 0 00.69-1.73 2.16 2.16 0 00-.64-1.62 2.21 2.21 0 00-1.64-.64 3.85 3.85 0 00-1 .16l.16-1.26h.23a2.94 2.94 0 001.64-.48 1.62 1.62 0 00.73-1.46 1.73 1.73 0 00-.53-1.3 1.89 1.89 0 00-1.38-.52 2 2 0 00-1.38.52 2.68 2.68 0 00-.72 1.57l-1.43-.25a3.7 3.7 0 011.19-2.22 3.43 3.43 0 012.31-.79 3.67 3.67 0 011.75.41 2.89 2.89 0 011.65 2.61 2.44 2.44 0 01-.4 1.37 2.75 2.75 0 01-1.2 1 2.69 2.69 0 011.6 1 3 3 0 01.57 1.88 3.44 3.44 0 01-1.11 2.58 3.91 3.91 0 01-2.8 1.06 3.64 3.64 0 01-2.54-.92 3.5 3.5 0 01-1.15-2.37z"/><path d="M20.22 26.57a10.4 10.4 0 01.43-3.32 4.06 4.06 0 011.26-1.94 3.19 3.19 0 012.1-.68 3.49 3.49 0 011.65.37 3.26 3.26 0 011.16 1.09 5.6 5.6 0 01.72 1.73 11.2 11.2 0 01.26 2.75 10.68 10.68 0 01-.42 3.3 4.12 4.12 0 01-1.25 1.94 3.22 3.22 0 01-2.13.69 3.18 3.18 0 01-2.64-1.21 7.68 7.68 0 01-1.14-4.72zm1.47 0c0 1.91.22 3.18.67 3.81a1.92 1.92 0 003.31 0 7.33 7.33 0 00.67-3.8 7.37 7.37 0 00-.67-3.82 2 2 0 00-1.67-.95 1.83 1.83 0 00-1.57.83 7.4 7.4 0 00-.74 3.93z"/></symbol>
    <symbol viewBox="0 0 18.8 23.64" id="z-cart"><path d="M18.39 6.22h-3.1c-.37 0-.46-.11-.44-.46a4.75 4.75 0 00-.14-1.55 5.2 5.2 0 00-3.94-4 5.22 5.22 0 00-5.43 1.61 5.29 5.29 0 00-1.4 4c0 .32-.07.41-.39.4H.45c-.34 0-.45.07-.45.44v16.55c0 .36.11.43.45.43h18c.32 0 .4-.08.39-.4V6.6c-.04-.33-.16-.38-.45-.38zM8.57 1.27a4.29 4.29 0 015.11 4.14c0 .82 0 .82-.78.82H5.52c-.34 0-.39-.12-.41-.43a4.32 4.32 0 013.46-4.53zm9 20.79c0 .33-.09.4-.4.4H1.64c-.33 0-.46-.06-.46-.43V7.81c0-.3.06-.42.39-.41h2.08c.23 0 .29.07.29.3v2.29c0 .23.06.31.31.32.88 0 .88 0 .88-.85V7.77c0-.27.06-.37.35-.37h7.89c.26 0 .34.08.34.34v2.21c0 .27.08.36.36.36.83 0 .83 0 .83-.82v-1.7c0-.33.11-.4.41-.39h1.91c.36 0 .44.1.44.45v13.32a8.77 8.77 0 00-.05.89z"/></symbol>
    <symbol viewBox="0 0 39.12 39.12" id="z-dolar"><path d="M19.68 0a19.56 19.56 0 1019.44 19.77A19.56 19.56 0 0019.68 0zm-.15 37.48a17.92 17.92 0 1117.95-17.81 17.92 17.92 0 01-17.95 17.81z"/><path d="M24.11 19.56a7.59 7.59 0 00-4.46-.82h-1.72A4.1 4.1 0 0114 15.82a6 6 0 01-.17-2 4.07 4.07 0 013.94-4.06h3.58a4 4 0 013.8 3.24c.12.78.42.85 1.07.86s.71-.22.63-.76a5.69 5.69 0 00-5-4.89c-.49-.06-1.22.08-1.42-.2s-.14-1-.09-1.52-.14-.84-.82-.84-.95.17-.84.86c.05.34 0 .69 0 1s-.13.6-.6.6a5.68 5.68 0 00-5.27 3 6.92 6.92 0 00-.59 4.36 5.64 5.64 0 004.9 4.77c1.4.15 2.8 0 4.2.09a3.9 3.9 0 013 1.52 4.75 4.75 0 01.9 3.36 4 4 0 01-3.47 4 19.57 19.57 0 01-4.12 0 4 4 0 01-3.79-3.62c-.06-.36-.17-.48-.51-.44a2.57 2.57 0 01-.62 0c-.46-.06-.54.15-.5.55a5.55 5.55 0 00.9 2.57 5.68 5.68 0 005 2.6c.51 0 .63.16.59.62s0 .92 0 1.37c0 .3 0 .44.4.46 1.25.05 1.25.07 1.25-1.21a5 5 0 000-.55c-.06-.49.06-.69.64-.7a5.67 5.67 0 005.66-4.15 7.44 7.44 0 00.2-2.53 5.57 5.57 0 00-2.74-4.62z"/></symbol>
    <symbol viewBox="0 0 34 33.12" id="z-menu"><path d="M0 0h34v2H0zm0 10.37h34v2H0zm0 10.37h34v2H0zm0 10.38h34v2H0z"/></symbol>
    <symbol viewBox="0 0 25.7 25.62" id="z-search"><path d="M25.13 24c-2.56-2.57-5.12-5.14-7.7-7.68-.46-.46-.51-.73-.09-1.31A9.2 9.2 0 0019 8.52 9.55 9.55 0 009.58 0 9.39 9.39 0 00.24 11.55a9.51 9.51 0 0014.58 5.85c.77-.51 1.15-.35 1.71.22 2.46 2.51 5 5 7.44 7.45.41.41.73.88 1.39.24s.16-.96-.23-1.31zM9.48 17.38a7.67 7.67 0 01-7.75-7.87A7.79 7.79 0 019.6 1.62a7.74 7.74 0 017.86 7.94c-.04 4.73-3.28 7.65-7.98 7.82z"/></symbol>
    <symbol viewBox="0 0 48.7 48.24" id="z-shirt"><path d="M48.66 23.21c-.58-3.55-1-7.12-1.72-10.65-.59-3-1.15-6-3.62-8.28C40 1.28 36 .42 31.84 0c-.77-.08-.95.51-1.17 1.15A6.58 6.58 0 0124.3 5.7 6.49 6.49 0 0118 1.1c-.28-.84-.67-1.18-1.53-1.1a26.27 26.27 0 00-5.7 1.12c-3.61 1.29-6.7 3.24-7.94 7.11C1.25 13.12.73 18.22 0 23.28c-.15 1.06.26 1.48 1.32 1.46 1.8 0 3.6.05 5.4 0 1-.05 1.35.2 1.34 1.3-.06 6.78 0 13.55 0 20.33 0 1.8.1 1.91 1.94 1.91h28.73c1.76 0 1.84-.09 1.84-1.85V26.1c0-1 .17-1.43 1.3-1.36 1.79.11 3.6 0 5.4 0 1.07.02 1.58-.37 1.39-1.53zM45.9 23c-1.42 0-2.84-.06-4.26 0-.91.05-1.1-.29-1.09-1.13.05-3.56 0-7.11 0-10.66a10.85 10.85 0 000-1.14.8.8 0 00-1.6 0v34.96c0 1.29-.35 1.55-1.57 1.54q-13.15-.08-26.31 0c-1.07 0-1.34-.28-1.33-1.34.06-5.73 0-11.47 0-17.2V10.57c0-.63-.08-1.22-.85-1.19s-.85.62-.84 1.24v11.37c0 .75-.1 1.11-1 1.07-1.52-.08-3 0-4.55 0-.62 0-.82-.14-.71-.81C2.51 18.19 3 14.11 4 10.1a9.58 9.58 0 015.87-6.8 20.81 20.81 0 015.75-1.48c.58-.08.78.06 1 .59a8.11 8.11 0 007.63 5 8.12 8.12 0 007.74-5c.2-.42.35-.65.92-.57a22.16 22.16 0 015.88 1.53A9.47 9.47 0 0144.65 10c1 4 1.54 8.08 2.14 12.15.13.9-.24.9-.89.85z"/></symbol>
    <symbol viewBox="0 0 67.59 30.38" id="z-truck"><path d="M67.58 16.17a3.54 3.54 0 00-.28-1.5 499.74 499.74 0 01-3.6-8.23 1.44 1.44 0 00-1.56-1h-5.69c-1.18 0-2.72.5-3.44-.2s-.17-2.24-.25-3.47a.49.49 0 010-.12C52.74.13 52.64 0 51.15 0H18.64c-1 0-1.4.37-1.45 1.37-.16 2.8-.4 5.59-.6 8.39-.36 4.87-.69 9.76-1.08 14.63-.08 1.06.34 1.44 1.35 1.41h3.55c.71 0 1.11.11 1.36.91a5.41 5.41 0 0010.26 0c.26-.81.66-.9 1.35-.89h12.1a1.15 1.15 0 011.35.91A5.34 5.34 0 0052 30.38a5.4 5.4 0 005.12-3.71 1.09 1.09 0 011.25-.89h7.83c1.07 0 1.47-.39 1.44-1.47-.1-2.7-.07-5.42-.06-8.14zM26.85 28.76A3.75 3.75 0 0123.1 25a3.81 3.81 0 013.74-3.81A3.86 3.86 0 0130.73 25a3.8 3.8 0 01-3.88 3.76zm20-5.39a1 1 0 01-1.13.85H33.26a1 1 0 01-1.16-.82 5.42 5.42 0 00-5.14-3.85 5.36 5.36 0 00-5.15 3.82 1 1 0 01-1.28.84c-1-.08-2.43.44-3.09-.2s-.07-2 0-3.06c.41-5.95.87-11.89 1.25-17.83.08-1.14.35-1.6 1.64-1.58 4.91.09 9.81 0 14.71 0h15c.89 0 1.23.17 1.22 1.15-.06 5.29 0 10.58 0 15.87 0 .74-.16 1.08-.93 1.31a5 5 0 00-3.52 3.5zm5 5.39A3.83 3.83 0 0148.1 25a3.84 3.84 0 117.67.07 3.78 3.78 0 01-3.92 3.69zM65 24.22h-6.76c-.64 0-1-.14-1.16-.81a5.08 5.08 0 00-3.61-3.59.85.85 0 01-.73-1V7.95c0-.67.21-.9.88-.88h7.7a1.12 1.12 0 011.25.78c1 2.43 2.11 4.83 3.18 7.24a3.07 3.07 0 01.25 1.28v6.86c0 .77-.22 1.01-1 .99zM12.67 6.27c.55 0 1.21.05 1.26-.72s-.66-.86-1.25-.86H1.21c-.57 0-1.21 0-1.21.79s.62.79 1.2.79h11.47zm.16 7.42c.53 0 1.1-.08 1.11-.78s-.52-.8-1.07-.8H4.22c-.56 0-1.09.08-1.11.77s.53.8 1.07.8h4.27zm.06 5.81H7.33c-.53 0-1.1.11-1.11.78s.61.82 1.18.83h5.44c.53 0 1.09-.11 1.11-.78s-.52-.83-1.06-.83z"/></symbol>
    <symbol viewBox="0 0 20.84 23.78" id="z-user"><path d="M20.82 19.25a4.48 4.48 0 00-4.5-4.47q-6-.06-12 0A4.33 4.33 0 000 19.24c0 1.15.05 2.31 0 3.47 0 .81.2 1.09 1.05 1.07 3.12-.05 6.23 0 9.35 0h9.45c.71 0 1-.21 1-1-.06-1.15 0-2.34-.03-3.53zm-4.05 3H2.48c-.8 0-1.07-.24-1-1 .05-.59 0-1.19 0-1.79a3 3 0 013.09-3.23c3.85-.05 7.71-.06 11.56 0a3 3 0 013.18 3.21c.04 3.49.52 2.78-2.54 2.84zm-6.62-8.97A6.64 6.64 0 1010.49 0a6.52 6.52 0 00-6.78 6.74 6.43 6.43 0 006.44 6.54zm.36-11.8a5.17 5.17 0 11-.23 10.33 5.06 5.06 0 01-5-5.23 5 5 0 015.23-5.1z"/></symbol>
    <symbol viewBox="-23 -21 682 682.667" id="z-whatsapp"><path d="M544.387 93.008C484.512 33.063 404.883.035 320.05 0 145.246 0 2.98 142.262 2.91 317.113c-.024 55.895 14.577 110.457 42.331 158.551L.25 640l168.121-44.102c46.324 25.27 98.477 38.586 151.55 38.602h.134c174.785 0 317.066-142.273 317.132-317.133.036-84.742-32.921-164.418-92.8-224.36zM320.05 580.94h-.11c-47.296-.02-93.683-12.73-134.16-36.742l-9.62-5.715-99.766 26.172 26.628-97.27-6.27-9.972c-26.386-41.969-40.32-90.476-40.296-140.281.055-145.332 118.305-263.57 263.7-263.57 70.406.023 136.59 27.476 186.355 77.3s77.156 116.051 77.133 186.485C583.582 462.69 465.34 580.94 320.05 580.94zm144.586-197.418c-7.922-3.968-46.883-23.132-54.149-25.78-7.258-2.645-12.547-3.962-17.824 3.968-5.285 7.93-20.469 25.781-25.094 31.066-4.625 5.29-9.242 5.953-17.168 1.985-7.925-3.965-33.457-12.336-63.726-39.332-23.555-21.012-39.457-46.961-44.082-54.89-4.617-7.938-.04-11.813 3.476-16.173 8.578-10.652 17.168-21.82 19.809-27.105 2.644-5.29 1.32-9.918-.664-13.883-1.977-3.965-17.824-42.969-24.426-58.84-6.437-15.445-12.965-13.36-17.832-13.601-4.617-.231-9.902-.278-15.187-.278-5.282 0-13.868 1.98-21.133 9.918-7.262 7.934-27.73 27.102-27.73 66.106s28.394 76.683 32.355 81.972c3.96 5.29 55.879 85.328 135.367 119.649 18.906 8.172 33.664 13.043 45.176 16.695 18.984 6.031 36.254 5.18 49.91 3.14 15.226-2.277 46.879-19.171 53.488-37.68 6.602-18.51 6.602-34.374 4.617-37.683-1.976-3.304-7.261-5.285-15.183-9.254zm0 0" fill-rule="evenodd"/></symbol>
    <symbol viewBox="0 0 24.91 21.52" id="z-wish"><path d="M24.89 7.27a8 8 0 00-2.6-5.5 6.57 6.57 0 00-8.47-.4 8.33 8.33 0 00-1.36 1.42c-.1-.12-.18-.22-.25-.32A6.51 6.51 0 004.34.61 7.53 7.53 0 00.49 5a6.29 6.29 0 00.44 5.72 17.11 17.11 0 002 2.79 50.46 50.46 0 008.91 7.79 1 1 0 001.29-.05 55.88 55.88 0 007.65-6.41 19.25 19.25 0 003.34-4.38 5.71 5.71 0 00.77-3.19zm-2.21 2.93a22.54 22.54 0 01-2.2 2.92 51.77 51.77 0 01-7.77 6.72c-.14.1-.26.19-.45.05A46.62 46.62 0 013.47 12a14 14 0 01-1.38-2 4.93 4.93 0 01-.35-4.3 6.19 6.19 0 013.19-3.82 5.82 5.82 0 012.57-.49 4.88 4.88 0 014.09 2.67c.21.36.34.82.87.83s.64-.44.84-.79a5.12 5.12 0 017.08-2c2.55 1.43 4.18 5.29 2.3 8.1z"/></symbol></svg>