<!-- SVG Sprite -->
<svg id="svg-sprite" class="svg-sprites">
    <!-- Gradients -->
    <defs>
        <!-- Horizontais -->
        <linearGradient id="color1_h" x1="0%" y1="0%" x2="100%" y2="0%"><stop offset="0%" stop-color="@bg(1)" /><stop offset="100%" stop-color="@bg(1:hover)" /></linearGradient>
        <linearGradient id="color2_h" x1="0%" y1="0%" x2="100%" y2="0%"><stop offset="0%" stop-color="@bg(2)" /><stop offset="100%" stop-color="@bg(2:hover)" /></linearGradient>
        <linearGradient id="color3_h" x1="0%" y1="0%" x2="100%" y2="0%"><stop offset="0%" stop-color="@bg(3)" /><stop offset="100%" stop-color="@bg(3:hover)" /></linearGradient>
        <linearGradient id="button_h" x1="0%" y1="0%" x2="100%" y2="0%"><stop offset="0%" stop-color="@button(bg)" /><stop offset="100%" stop-color="@button(bg:hover)" /></linearGradient>
        <linearGradient id="timer__gradient" x1="0%" y1="0%" x2="100%" y2="0%"><stop offset="0%" stop-color="@bg(1)" /><stop offset="100%" stop-color="@bg(2)" /></linearGradient>
        <!-- Verticais -->
        <linearGradient id="color1_v" x1="0%" y1="0%" x2="0%" y2="100%"><stop offset="0%" stop-color="@bg(1)" /><stop offset="100%" stop-color="@bg(1:hover)" /></linearGradient>
        <linearGradient id="color2_v" x1="0%" y1="0%" x2="0%" y2="100%"><stop offset="0%" stop-color="@bg(2)" /><stop offset="100%" stop-color="@bg(2:hover)" /></linearGradient>
        <linearGradient id="color3_v" x1="0%" y1="0%" x2="0%" y2="100%"><stop offset="0%" stop-color="@bg(3)" /><stop offset="100%" stop-color="@bg(3:hover)" /></linearGradient>
        <linearGradient id="button_v" x1="0%" y1="0%" x2="0%" y2="100%"><stop offset="0%" stop-color="@button(bg)" /><stop offset="100%" stop-color="@button(bg:hover)" /></linearGradient>
    </defs>
    <!--
	Ícones Obrigatórios
	* É possível alterá-los, porém não altere o ID
	-->
    <symbol id="i-play" 		viewBox="0 0 16 16"><path d="M2.9,1C1.3,0.2,0,0.9,0,2.4v11.2c0,1.5,1.3,2.1,2.9,1.4l11.9-5.6c1.6-0.8,1.6-2,0-2.7L2.9,1z"/></symbol>
    <symbol id="i-list" 		viewBox="0 0 16 16"><path d="M14.4,3.2H1.6C0.7,3.2,0,2.5,0,1.6v0C0,0.7,0.7,0,1.6,0l12.8,0C15.3,0,16,0.7,16,1.6v0 C16,2.5,15.3,3.2,14.4,3.2z M16,14.4L16,14.4c0-0.9-0.7-1.6-1.6-1.6H1.6c-0.9,0-1.6,0.7-1.6,1.6v0C0,15.3,0.7,16,1.6,16h12.8 C15.3,16,16,15.3,16,14.4z M16,8L16,8c0-0.9-0.7-1.6-1.6-1.6H1.6C0.7,6.4,0,7.1,0,8v0c0,0.9,0.7,1.6,1.6,1.6h12.8 C15.3,9.6,16,8.9,16,8z"/></symbol>
    <symbol id="i-grid" 		viewBox="0 0 16 16"><path d="M3.2,1.6c0,0.9-0.7,1.6-1.6,1.6S0,2.5,0,1.6S0.7,0,1.6,0S3.2,0.7,3.2,1.6z M8,0 C7.1,0,6.4,0.7,6.4,1.6S7.1,3.2,8,3.2s1.6-0.7,1.6-1.6S8.9,0,8,0z M14.4,0c-0.9,0-1.6,0.7-1.6,1.6s0.7,1.6,1.6,1.6S16,2.5,16,1.6 S15.3,0,14.4,0z M1.6,6.4C0.7,6.4,0,7.1,0,8s0.7,1.6,1.6,1.6S3.2,8.9,3.2,8S2.5,6.4,1.6,6.4z M8,6.4C7.1,6.4,6.4,7.1,6.4,8 S7.1,9.6,8,9.6S9.6,8.9,9.6,8S8.9,6.4,8,6.4z M14.4,6.4c-0.9,0-1.6,0.7-1.6,1.6s0.7,1.6,1.6,1.6S16,8.9,16,8S15.3,6.4,14.4,6.4z M1.6,12.8c-0.9,0-1.6,0.7-1.6,1.6S0.7,16,1.6,16s1.6-0.7,1.6-1.6S2.5,12.8,1.6,12.8z M8,12.8c-0.9,0-1.6,0.7-1.6,1.6S7.1,16,8,16 s1.6-0.7,1.6-1.6S8.9,12.8,8,12.8z M14.4,12.8c-0.9,0-1.6,0.7-1.6,1.6s0.7,1.6,1.6,1.6s1.6-0.7,1.6-1.6S15.3,12.8,14.4,12.8z"/></symbol>
    <symbol id="i-success"      viewBox="0 0 16 16"><path d="M8,0C3.6,0,0,3.6,0,8c0,4.4,3.6,8,8,8c4.4,0,8-3.6,8-8S12.4,0,8,0z M7.4,12.7l-1-0.7l0,0L2.9,9.5l0.7-1 L7.1,11l4.7-6.5l1,0.7L7.4,12.7z"/></symbol>
    <symbol id="img-truck" 		viewBox="0 0 16 16"><path d="M1.1,12L8,16l6.9-4V4L8,0L1.1,4V12z M7.5,14.6l-2.3-1.3V7l2.3,1.3V14.6z M14,11.5l-5.5,3.2V8.3 L14,5.1V11.5z M13.5,4.3L8,7.5L5.7,6.1l5.3-3.4L13.5,4.3z M8,1.1l2,1.2L4.8,5.6L2.5,4.3L8,1.1z M2,5.1l2.3,1.3v6.4L2,11.5 C2,11.5,2,5.1,2,5.1z M13.2,8.5L10.5,10v2.4l2.7-1.5V8.5z"/></symbol>
    <symbol id="img-cupon" 		viewBox="0 0 16 16"><path d="M16,0.6C16,0.3,15.8,0,15.4,0H7.5C7.4,0,7.2,0.1,7.1,0.2L0.7,6.5C0.3,6.9,0,7.5,0,8.1 c0,0.6,0.2,1.2,0.7,1.6l5.6,5.6c0.4,0.4,1,0.7,1.6,0.7s1.2-0.2,1.6-0.7l6.4-6.5C16,8.8,16,8.6,16,8.4V0.6z M7.2,14.4L1.6,8.8 C1.4,8.6,1.3,8.4,1.3,8.1c0-0.3,0.1-0.5,0.3-0.7l0.3-0.3l7,7l-0.3,0.3C8.2,14.8,7.5,14.8,7.2,14.4z M9.7,13.3l-7-7l5-5h7v6.9 L9.7,13.3z M13.2,4.4c0-1-0.8-1.8-1.7-1.8S9.7,3.4,9.7,4.4s0.8,1.8,1.7,1.8S13.2,5.4,13.2,4.4z M11.4,4.9c-0.3,0-0.6-0.2-0.6-0.6 s0.2-0.6,0.6-0.6c0.3,0,0.6,0.2,0.6,0.6S11.7,4.9,11.4,4.9z"/></symbol>
    <symbol id="img-os-new" 	viewBox="0 0 16 16"><path d="M13.5,15.9c0,0.1-0.1,0.1-0.1,0.1c-0.1,0-0.1,0-0.2,0c0,0-0.1,0-0.1,0l-0.7-0.7l-0.7,0.7 c-0.1,0.1-0.2,0.1-0.3,0l-0.7-0.7l-0.7,0.7c-0.1,0.1-0.2,0.1-0.3,0l-0.7-0.7l-0.7,0.7c-0.1,0.1-0.2,0.1-0.3,0l-0.7-0.7l-0.7,0.7 c-0.1,0.1-0.2,0.1-0.3,0l-0.7-0.7l-0.7,0.7c-0.1,0.1-0.2,0.1-0.3,0l-0.7-0.7l-0.7,0.7c0,0,0,0-0.1,0c-0.1,0-0.1,0-0.2,0 c-0.1,0-0.1-0.1-0.1-0.1c0,0,0-0.1,0-0.1V2.2c0,0,0,0,0,0c0,0,0,0,0,0c0-0.4,0.3-0.7,0.7-0.7c0,0,0,0,0,0h2.3V2H3.2c0,0,0,0,0,0 C3.1,2,3,2.1,3,2.2c0,0,0,0,0,0c0,0,0,0,0,0v13l0.5-0.5c0,0,0.1-0.1,0.2-0.1s0.1,0,0.2,0.1l0.7,0.7l0.7-0.7c0,0,0.1-0.1,0.2-0.1 c0.1,0,0.1,0,0.2,0.1l0.7,0.7L7,14.8c0,0,0.1-0.1,0.2-0.1c0.1,0,0.1,0,0.2,0.1L8,15.5l0.7-0.7c0,0,0.1-0.1,0.2-0.1 c0.1,0,0.1,0,0.2,0.1l0.7,0.7l0.7-0.7c0,0,0.1-0.1,0.2-0.1c0.1,0,0.1,0,0.2,0.1l0.7,0.7l0.7-0.7c0,0,0.1-0.1,0.2-0.1 c0.1,0,0.1,0,0.2,0.1l0.5,0.5v-13C13,2.1,12.9,2,12.8,2h-2.3V1.6h2.3c0.4,0,0.7,0.3,0.7,0.7L13.5,15.9 C13.5,15.8,13.5,15.8,13.5,15.9z M10.2,10.1c-0.2,0-0.4-0.3-0.4-0.7c0-0.4,0.2-0.7,0.4-0.7s0.4,0.3,0.4,0.7 C10.6,9.8,10.4,10.1,10.2,10.1z M6.9,11c0,0.6,0.5,1.1,1.1,1.1c0.6,0,1.1-0.5,1.1-1.1c0-0.1,0.1-0.2,0.2-0.2c0.1,0,0.2,0.1,0.2,0.2 c0,0.8-0.7,1.5-1.5,1.5S6.5,11.8,6.5,11c0-0.1,0.1-0.2,0.2-0.2C6.8,10.7,6.9,10.8,6.9,11z M6.3,1.5l0.3-0.3l1.1,1.1L10,0l0.3,0.3 L7.8,3.1L6.3,1.5z M5.8,10.1c-0.2,0-0.4-0.3-0.4-0.7c0-0.4,0.2-0.7,0.4-0.7s0.4,0.3,0.4,0.7C6.3,9.8,6.1,10.1,5.8,10.1z"/></symbol>
    <symbol id="img-os-ok" 		viewBox="0 0 16 16"><path d="M15.7,15.5H0.3c-0.2,0-0.3-0.1-0.3-0.3v-10c0,0,0,0,0,0v0c0,0,0,0,0,0c0,0,0,0,0-0.1l1.8-4.5c0,0,0,0,0,0 c0-0.1,0.1-0.2,0.2-0.2c0,0,0,0,0,0c0,0,0,0,0,0h11.8c0,0,0,0,0,0c0,0,0,0,0,0c0.1,0,0.2,0.1,0.2,0.2c0,0,0,0,0,0L16,5.1 c0,0,0,0,0,0.1c0,0,0,0,0,0v0c0,0,0,0,0,0v10C16,15.4,15.9,15.5,15.7,15.5z M2.3,1L0.7,4.9h5.6L6.8,1C6.8,1,2.3,1,2.3,1z M7.7,1H7.4 L7,4.9h0.7V1z M8.6,1H8.3v3.9H9L8.6,1z M9.1,5.5H6.9v0.7l1-0.3c0,0,0,0,0,0c0,0,0,0,0.1,0c0,0,0,0,0.1,0c0,0,0,0,0,0l1,0.3L9.1,5.5 L9.1,5.5z M13.7,1H9.2l0.4,3.9h5.6L13.7,1z M15.4,5.5H9.7v1.1c0,0,0,0,0,0c0,0,0,0,0,0c0,0,0,0,0,0c0,0.1-0.1,0.1-0.1,0.1 c0,0,0,0,0,0c0,0-0.1,0-0.2,0c0,0-0.1,0-0.1,0L8,6.5L6.7,6.9c0,0-0.1,0-0.1,0c-0.1,0-0.1,0-0.2,0c0,0,0,0,0,0c0,0-0.1-0.1-0.1-0.1 c0,0,0,0,0,0c0,0,0,0,0,0c0,0,0,0,0,0V5.5H0.6V15h14.8h0V5.5z M11,10.2c-0.3,0-0.6-0.4-0.6-0.9s0.3-0.9,0.6-0.9 c0.3,0,0.6,0.4,0.6,0.9S11.3,10.2,11,10.2z M8,13.5c-1.1,0-2.1-0.9-2.1-2.1c0-0.2,0.1-0.3,0.3-0.3c0.2,0,0.3,0.1,0.3,0.3 c0,0.8,0.7,1.5,1.5,1.5s1.5-0.7,1.5-1.5c0-0.2,0.1-0.3,0.3-0.3s0.3,0.1,0.3,0.3C10.1,12.6,9.1,13.5,8,13.5z M5,10.2 c-0.3,0-0.6-0.4-0.6-0.9S4.7,8.5,5,8.5c0.3,0,0.6,0.4,0.6,0.9S5.4,10.2,5,10.2z"/></symbol>
    <symbol id="img-os-sent" 	viewBox="0 0 16 16"><path d="M8,16C6.2,16,2.4,8.3,2.4,5.6C2.4,2.5,4.9,0,8,0s5.6,2.5,5.6,5.6C13.6,8.3,9.8,16,8,16z M8,0.5 c-2.8,0-5.1,2.3-5.1,5.1c0,2.9,3.8,9.9,5.1,9.9c1.2,0,5.1-7,5.1-9.9C13.1,2.8,10.8,0.5,8,0.5z M10.4,6.1c-0.3,0-0.5-0.3-0.5-0.7 c0-0.4,0.2-0.7,0.5-0.7s0.5,0.3,0.5,0.7C10.9,5.7,10.7,6.1,10.4,6.1z M8,8.7C7.1,8.7,6.3,8,6.3,7c0-0.1,0.1-0.2,0.2-0.2 c0.1,0,0.2,0.1,0.2,0.2c0,0.7,0.5,1.2,1.2,1.2S9.2,7.7,9.2,7c0-0.1,0.1-0.2,0.2-0.2S9.7,6.9,9.7,7C9.7,8,8.9,8.7,8,8.7z M5.6,6.1 c-0.3,0-0.5-0.3-0.5-0.7c0-0.4,0.2-0.7,0.5-0.7s0.5,0.3,0.5,0.7C6.1,5.7,5.8,6.1,5.6,6.1z"/></symbol>
    <symbol id="img-os-hold" 	viewBox="0 0 16 16"><path d="M13.1,15.9c0,0-0.1,0.1-0.1,0.1c0,0-0.1,0-0.2,0c0,0,0,0-0.1,0l-0.7-0.7l-0.7,0.7c-0.1,0.1-0.2,0.1-0.3,0 l-0.7-0.7l-0.7,0.7c-0.1,0.1-0.2,0.1-0.3,0l-0.7-0.7l-0.7,0.7c-0.1,0.1-0.2,0.1-0.3,0l-0.7-0.7l-0.7,0.7c-0.1,0.1-0.2,0.1-0.3,0 l-0.7-0.7l-0.7,0.7c-0.1,0.1-0.2,0.1-0.3,0l-0.7-0.7l-0.7,0.7c0,0,0,0-0.1,0c-0.1,0-0.1,0-0.2,0c0,0-0.1-0.1-0.1-0.1 c0,0,0-0.1,0-0.1V3.2c0,0,0,0,0,0c0,0,0,0,0,0c0-0.3,0.3-0.6,0.6-0.6c0,0,0,0,0,0h2.1V3H3.5c0,0,0,0,0,0C3.4,3,3.3,3.1,3.3,3.2 c0,0,0,0,0,0c0,0,0,0,0,0v12.1l0.5-0.5c0,0,0.1-0.1,0.1-0.1s0.1,0,0.1,0.1l0.7,0.7l0.7-0.7c0,0,0.1-0.1,0.1-0.1c0.1,0,0.1,0,0.1,0.1 l0.7,0.7L7,14.8c0,0,0.1-0.1,0.1-0.1c0.1,0,0.1,0,0.1,0.1L8,15.5l0.7-0.7c0,0,0.1-0.1,0.1-0.1c0.1,0,0.1,0,0.1,0.1l0.7,0.7l0.7-0.7 c0,0,0.1-0.1,0.1-0.1c0.1,0,0.1,0,0.1,0.1l0.7,0.7l0.7-0.7c0,0,0.1-0.1,0.1-0.1c0.1,0,0.1,0,0.1,0.1l0.5,0.5V3.2 c0-0.1-0.1-0.2-0.2-0.2h-2.1V2.6h2.1c0.3,0,0.6,0.3,0.6,0.6L13.1,15.9C13.1,15.8,13.1,15.9,13.1,15.9z M9.8,1.3l0.9-1H9.9V0h1.3v0.2 l-0.9,1h0.9v0.3H9.8L9.8,1.3L9.8,1.3z M10.9,9.8c0.1,0,0.2,0.1,0.2,0.2s-0.1,0.2-0.2,0.2H9.8c-0.1,0-0.2-0.1-0.2-0.2 c0-0.1,0.1-0.2,0.2-0.2H10.9z M9.8,12.1c0,0.1-0.1,0.2-0.2,0.2H6.4c-0.1,0-0.2-0.1-0.2-0.2c0-0.1,0.1-0.2,0.2-0.2h3.2 C9.7,11.9,9.8,12,9.8,12.1z M7,3.4l1.5-1.8H7V1.1h2.2v0.4L7.7,3.4h1.5v0.5H7V3.4z M6.2,10.2H5.1c-0.1,0-0.2-0.1-0.2-0.2 c0-0.1,0.1-0.2,0.2-0.2h1.1c0.1,0,0.2,0.1,0.2,0.2C6.4,10.1,6.3,10.2,6.2,10.2z"/></symbol>
    <symbol id="img-os-cancel"	viewBox="0 0 16 16"><path d="M14,15.9c0,0.1-0.1,0.1-0.1,0.1c-0.1,0-0.1,0-0.2,0c0,0-0.1,0-0.1-0.1l-0.8-0.8l-0.8,0.8 c-0.1,0.1-0.2,0.1-0.3,0l-0.8-0.8l-0.8,0.8C10,16,9.9,16,9.8,15.9L9,15.1l-0.8,0.8c-0.1,0.1-0.2,0.1-0.3,0L7,15.1l-0.8,0.8 C6.1,16,6,16,5.9,15.9l-0.8-0.8l-0.8,0.8C4.2,16,4,16,3.9,15.9l-0.8-0.8l-0.8,0.8c0,0,0,0-0.1,0.1c-0.1,0-0.1,0-0.2,0 C2,16,2,15.9,2,15.9c0,0,0-0.1,0-0.1v-15c0,0,0,0,0,0c0,0,0,0,0,0C1.9,0.3,2.3,0,2.7,0c0,0,0,0,0,0h10.7c0.4,0,0.7,0.3,0.7,0.7 L14,15.9C14.1,15.8,14.1,15.8,14,15.9z M13.6,0.7c0-0.1-0.1-0.2-0.2-0.2H2.7c0,0,0,0,0,0c-0.1,0-0.2,0.1-0.2,0.2c0,0,0,0,0,0 c0,0,0,0,0,0v14.4L3,14.6c0,0,0.1-0.1,0.2-0.1c0.1,0,0.1,0,0.2,0.1l0.8,0.8l0.8-0.8c0,0,0.1-0.1,0.2-0.1c0.1,0,0.1,0,0.2,0.1 l0.8,0.8l0.8-0.8c0,0,0.1-0.1,0.2-0.1c0.1,0,0.1,0,0.2,0.1L8,15.4l0.8-0.8c0,0,0.1-0.1,0.2-0.1c0.1,0,0.1,0,0.2,0.1l0.8,0.8l0.8-0.8 c0,0,0.1-0.1,0.2-0.1c0.1,0,0.1,0,0.2,0.1l0.8,0.8l0.8-0.8c0,0,0.1-0.1,0.2-0.1c0.1,0,0.1,0,0.2,0.1l0.6,0.6L13.6,0.7L13.6,0.7z M7.6,9.3h0.8v0.9H7.6V9.3z M7.6,5.8h0.8v2.8H7.6V5.8z"/></symbol>
    <symbol id="img-bill" 		viewBox="0 0 16 16"><path d="M12.9,5.4H9.2V0.5C9.2,0.2,9,0,8.7,0h-7C1.4,0,1.2,0.2,1.2,0.5v13.5c0,0,0,0,0,0c0,1.1,0.9,1.9,1.9,1.9h7 c1.1,0,1.9-0.9,1.9-1.9v-2.9h2.3c0.3,0,0.5-0.2,0.5-0.5V7.3C14.8,6.2,13.9,5.4,12.9,5.4z M3.1,14.9c-0.5,0-0.9-0.4-0.9-0.9 c0,0,0,0,0,0v-13h5.9v13c0,0.3,0.1,0.6,0.2,0.9H3.1z M11,7.3C11,7.3,11,7.3,11,7.3l0,6.8c0,0.5-0.4,0.9-0.9,0.9 c-0.5,0-0.9-0.4-0.9-0.9V6.4h2C11,6.7,11,7,11,7.3z M13.8,10.2H12V7.3c0,0,0,0,0,0c0-0.5,0.4-0.9,0.9-0.9c0.5,0,0.9,0.4,0.9,0.9 V10.2z M6.5,3.1H3.9c-0.3,0-0.5,0.2-0.5,0.5c0,0.3,0.2,0.5,0.5,0.5h2.5C6.8,4.1,7,3.9,7,3.6C7,3.3,6.8,3.1,6.5,3.1z M6.5,7H3.9 C3.6,7,3.4,7.2,3.4,7.5c0,0.3,0.2,0.5,0.5,0.5h2.5C6.8,8.1,7,7.8,7,7.5C7,7.2,6.8,7,6.5,7z M6.5,10.9H3.9c-0.3,0-0.5,0.2-0.5,0.5 c0,0.3,0.2,0.5,0.5,0.5h2.5C6.8,12,7,11.8,7,11.5C7,11.2,6.8,10.9,6.5,10.9z"/></symbol>
    <symbol id="img-track" 		viewBox="0 0 16 16"><path d="M6.6,5.4C6.8,5.3,6.9,5,6.8,4.7C6.7,4.5,6.4,4.4,6.1,4.5C4.4,5.4,3.7,7.4,4.1,9c0.5,1.9,2.2,3,3.8,3 c0.8,0,1.6-0.2,2.2-0.6c1.4-0.9,2.2-2.6,1.7-4.5c-0.1-0.3-0.4-0.4-0.6-0.3c-0.3,0.1-0.4,0.4-0.3,0.6c0.2,0.5,0.1,1.1,0,1.7 c-0.4,1.4-1.8,2.3-3.2,2.1c-1.1-0.1-2.2-1-2.5-2.1C4.7,7.3,5.6,5.9,6.6,5.4z M13.8,2.5c-0.1-0.2-0.2-0.3-0.3-0.4C12,0.8,10,0,7.9,0 c0,0-0.1,0-0.1,0C7.6,0.1,7.5,0.3,7.5,0.5c0,2.5,0,5,0,7.4c0,0.2,0.1,0.4,0.3,0.5c0.2,0.1,0.4,0,0.6-0.1l5.3-5.3 C13.8,2.9,13.8,2.7,13.8,2.5z M14.8,3.8c-0.1-0.2-0.5-0.3-0.7-0.1c-0.2,0.1-0.3,0.5-0.1,0.7C14.7,5.5,15,7,15,8.4 c-0.2,2.8-2.1,5.4-4.9,6.3c-3,0.9-6.8-0.3-8.4-3.7C1,9.6,0.9,8.1,1.1,6.7c0.6-2.9,2.8-4.9,5.2-5.4c0.1,0,0.2-0.1,0.3-0.2 c0.2-0.2,0.2-0.5,0-0.7C6.6,0.2,6.3,0.1,6.1,0.2C4.2,0.7,1.9,2,0.6,4.8c-1,2.2-1.4,6.8,2.6,9.7c1.2,0.9,2.6,1.4,4.1,1.5 c2.8,0.2,5.7-1.1,7.4-3.7C16,10.3,16.8,6.9,14.8,3.8z"/></symbol>
    <symbol id="img-facebook" 	viewBox="0 0 16 16"><path d="M9.4,16V8.7H12l0.4-2.8H9.4V4c0-0.8,0.2-1.4,1.5-1.4h1.6V0.1c-0.3,0-1.3-0.1-2.4-0.1 c-2.4,0-4,1.3-4,3.7v2.1H3.5v2.8h2.7V16H9.4L9.4,16z"/></symbol>
    <symbol id="img-twitter" 	viewBox="0 0 20 16"><path d="M9.9,5c0,0-5,0-8.5-4.2c0,0-1.9,2.9,1.3,5.4c0,0-1,0-1.9-0.5c0,0-0.2,3,3.2,4c0,0-1,0.3-1.8,0 c0,0,0.5,2.5,3.8,2.8c0,0-2.6,2.1-6.1,1.7c0,0,2.8,1.9,6,1.8C18.1,15.6,18,4,18,4s1.6-1.3,2-2.1c0,0-1.6,0.6-2.3,0.6 c0,0,1.3-0.9,1.8-2.2c0,0-1.8,0.9-2.6,0.9c0,0-1-1.3-3-1.3C11.9,0,9.3,1.6,9.9,5z"/></symbol>
    <symbol id="img-googleplus" viewBox="0 0 25 16"><path d="M21.2,9.9v4.4h-2.9V9.9h-3.9V7.1h3.8V2.9h2.9v4.2H25v2.8L21.2,9.9L21.2,9.9z M6.7,16C6.2,16,0.1,16.1,0,8.6V7.6 C0,6.8-0.1,0,6.4,0c3.7,0,5.7,1.8,6.1,5.2H9.5C9.2,3.4,8.2,2.6,6.6,2.6c-4.1,0-3.3,5.9-3.3,5.9c0,1.6,0.3,2.9,0.9,3.7 c1.2,1.7,4.2,1.5,5.3,0.5V10H6.6V7.6h6.1v6.2C11.5,15.2,9.2,16,6.7,16z"/></symbol>
    <symbol id="img-linkedin" 	viewBox="0 0 16 16"><path d="M14.9,16H1.1C0.5,16,0,15.5,0,14.9V1.1C0,0.5,0.5,0,1.1,0h13.8C15.5,0,16,0.5,16,1.1v13.8 C16,15.5,15.5,16,14.9,16z M2.3,13.7h2.4V6H2.3V13.7z M3.6,2.2c-0.7,0-1.3,0.6-1.3,1.3s0.6,1.3,1.3,1.3c0.7,0,1.3-0.6,1.3-1.3 S4.3,2.2,3.6,2.2z M13.7,10.2c0-3.7-1-4.3-2.8-4.3c-1.4,0-2.1,0.7-2.3,0.9V6H6.3v7.7h2.3V9.9c0-1.4,0.6-2,1.5-2 c0.8,0,1.2,0.7,1.2,2.3v3.5h2.4L13.7,10.2L13.7,10.2z"/></symbol>
    <symbol id="img-pinterest" 	viewBox="0 0 16 16"><path d="M8,16c-0.9,0-1.7-0.1-2.4-0.4c0.2-0.2,0.8-1.1,1-1.8c0.2-0.8,0.6-2.2,0.6-2.2s0.4,0.9,1.8,0.9 s4.1-1.4,4.1-5c0-1.7-1.4-4.5-5-4.5S3,5.5,3,7.8c0,2.3,1.7,3.1,1.7,3.1L5,9.8c0,0-0.7-0.6-0.7-2S5.3,4.4,8,4.4s3.3,2.1,3.3,3.3 s-0.6,3.6-2.6,3.6c-0.9,0-1.2-0.6-1.2-1.2s0.7-2.4,0.7-3S7.9,6,7.3,6S5.8,6.7,5.8,8c0,0.8,0.3,1.2,0.3,1.2s-1,4.1-1,4.9 c0,0.5,0,1.1,0.1,1.4C2.1,14.3,0,11.4,0,8c0-4.4,3.6-8,8-8s8,3.6,8,8S12.4,16,8,16z"/></symbol>
    <symbol id="img-whatsapp" 	viewBox="0 0 16 16"><path d="M8.1,15.6c-1.4,0-2.7-0.4-3.8-1L0,16l1.4-4.2c-0.7-1.2-1.1-2.6-1.1-4C0.3,3.5,3.8,0,8.1,0 C12.5,0,16,3.5,16,7.8C16,12.1,12.5,15.6,8.1,15.6z M8.1,1.2c-3.6,0-6.6,2.9-6.6,6.6c0,1.4,0.5,2.8,1.3,3.8L2,14.1l2.5-0.8 c1,0.7,2.3,1.1,3.6,1.1c3.6,0,6.6-2.9,6.6-6.6C14.7,4.2,11.8,1.2,8.1,1.2z M10.3,11.4c-2.3-0.1-5.9-2.9-6-5.4 C4.2,4.3,5.6,4.2,5.9,4.2c0.4,0,0.4,0.6,1,1.7c0.2,0.4-0.8,1.1-0.5,1.4c0.1,0.2,0.5,0.8,1.1,1.3c0.9,0.9,1.7,1,1.9,0.9 c0.4-0.1,0.5-0.8,1-0.9c0.2,0,1.8,0.7,1.8,0.9C12.2,10.9,11,11.5,10.3,11.4z"/></symbol>
    <symbol id="img-tumblr" 	viewBox="0 0 16 16"><path d="M3.4,4.4c0,0,3.1-1.2,3.1-4.4H9v4h2.9v2.8H9c0,0,0,4,0,4.9c0,2.1,2.8,1.2,2.8,1.2l0.8,2.2 c0,0-1.3,0.9-2.9,0.9c-1.6,0-4.4-1-4.4-4.4s0-4.8,0-4.8H3.4L3.4,4.4L3.4,4.4z"/></symbol>

    <!--
	Ícones opcionais
	* Caso exclua um destes sprites, lembre-se de apagar a chamada nas inserções
	-->
    <symbol id="i-menu"     viewBox="0 0 16 16"><path d="M14.4,3.2H1.6C0.7,3.2,0,2.5,0,1.6v0C0,0.7,0.7,0,1.6,0l12.8,0C15.3,0,16,0.7,16,1.6v0 C16,2.5,15.3,3.2,14.4,3.2z M16,14.4L16,14.4c0-0.9-0.7-1.6-1.6-1.6H1.6c-0.9,0-1.6,0.7-1.6,1.6v0C0,15.3,0.7,16,1.6,16h12.8 C15.3,16,16,15.3,16,14.4z M16,8L16,8c0-0.9-0.7-1.6-1.6-1.6H1.6C0.7,6.4,0,7.1,0,8v0c0,0.9,0.7,1.6,1.6,1.6h12.8 C15.3,9.6,16,8.9,16,8z"/></symbol>
    <symbol id="i-search"   viewBox="0 0 16 16"><path d="M6.9,13.9c1.7,0,3.3-0.6,4.5-1.6l3.6,3.6c0.2,0.2,0.6,0.2,0.9,0c0.2-0.2,0.2-0.6,0-0.9l-3.6-3.6 c1-1.2,1.6-2.8,1.6-4.5c0-3.8-3.1-6.9-6.9-6.9S0,3.1,0,6.9S3.1,13.9,6.9,13.9z M6.9,1.2c3.2,0,5.7,2.6,5.7,5.7c0,1.6-0.6,3-1.7,4.1 c0,0,0,0,0,0c0,0,0,0,0,0c-1,1-2.5,1.7-4.1,1.7c-3.2,0-5.7-2.6-5.7-5.7S3.8,1.2,6.9,1.2z"/></symbol>
    <symbol id="i-cart"     viewBox="0 0 16 16"><path d="M15.2,15.5l-0.9-11c0-0.2-0.2-0.4-0.4-0.4h-2V3.9C11.9,1.8,10.2,0,8,0S4.1,1.8,4.1,3.9v0.2h-2 c-0.2,0-0.4,0.2-0.4,0.4L0.8,15.6c0,0.1,0,0.2,0.1,0.3C1,16,1.1,16,1.2,16h13.7c0,0,0,0,0,0C15,16,15.2,15.8,15.2,15.5 C15.2,15.6,15.2,15.5,15.2,15.5z M4.9,3.9c0-1.7,1.4-3.1,3.1-3.1s3.1,1.4,3.1,3.1v0.2H4.9V3.9z M1.6,15.2L2.5,4.9h1.6v0.6 C3.8,5.7,3.7,5.9,3.7,6.2C3.7,6.7,4,7,4.5,7s0.8-0.4,0.8-0.8c0-0.3-0.2-0.6-0.4-0.7V4.9h6.3v0.6c-0.2,0.1-0.4,0.4-0.4,0.7 c0,0.4,0.4,0.8,0.8,0.8s0.8-0.4,0.8-0.8c0-0.3-0.2-0.6-0.4-0.7V4.9h1.6l0.9,10.3H1.6L1.6,15.2z"/></symbol>
    <symbol id="i-wish"     viewBox="0 0 16 16"><path d="M2,9.2C0.6,7.6,0,5.9,0,4.4C0,1.7,1.5,0,3.8,0C6,0,6.7,1.1,8,2.8C9.3,1.1,10,0,12.2,0 C14.5,0,16,1.7,16,4.4c0,1.5-0.6,3.2-2,4.8L8,16L2,9.2z"/></symbol>
    <symbol id="i-user"     viewBox="0 0 16 16">
        <path class="female" d="M8,0C6.2,0,3.7,1.2,3.7,3.9v1.5C3.1,5.4,2.7,6,2.7,6.6s0.5,1.1,1.1,1.2c-0.1,2.4-0.8,5.6-2.4,6 C1.6,15,2.6,16,3.4,16h9.3c0.5,0,1.8-0.6,2.3-2.2c-1.7-0.3-2.7-3.7-2.7-6c0.6-0.1,1.1-0.6,1.1-1.2s-0.5-1.1-1.1-1.2V3.9 C12.3,1.9,11.4,0,8,0z M8.7,13.3c0,0.6-1.5,0.5-1.5,0v-0.9c0.1,0.1,1.3,0.1,1.5,0V13.3z M12.6,6.6c0,0.3-0.2,0.6-0.6,0.6 c-0.1,0-0.5,0-0.5,0v1.4c0,1.8-1.4,3.2-3.2,3.2H7.6c-1.8,0-3.2-1.4-3.2-3.2V7.1l-0.5,0c-0.3,0-0.6-0.2-0.6-0.6S3.6,6,3.9,6l0.5,0 V4.3c2.9,0.6,3.7-1,4.7-1c1,0,1.6,1.8,1.6,1.8c0.8-0.4,0.8-0.8,0.8-1V6c0,0,0.5,0,0.5,0C12.4,6,12.6,6.3,12.6,6.6z M8,8.2 c0.3,0,0.5-0.2,0.5-0.4c0-0.2-0.2-0.4-0.5-0.4c-0.3,0-0.5,0.2-0.5,0.4C7.5,8,7.7,8.2,8,8.2z M10,6C9.7,6,9.4,6.3,9.4,6.6 S9.7,7.1,10,7.1c0.3,0,0.5-0.2,0.5-0.5S10.3,6,10,6z M6.6,6.6C6.6,6.3,6.3,6,6,6S5.5,6.3,5.5,6.6S5.7,7.1,6,7.1S6.6,6.9,6.6,6.6z M10.1,8.8c-0.2-0.1-0.4,0-0.4,0.2C9.3,9.6,8.7,10,8,10c-0.7,0-1.3-0.4-1.6-1C6.3,8.8,6.1,8.7,5.9,8.8C5.7,8.8,5.7,9,5.7,9.2 C6.2,10.1,7,10.7,8,10.7c1,0,1.8-0.6,2.3-1.4C10.3,9,10.3,8.8,10.1,8.8z"/>
        <path class="male" d="M8,0C6.2,0,3.7,1.2,3.7,3.9v1.5C3.1,5.4,2.7,6,2.7,6.6s0.5,1.1,1.1,1.2v0.7c0,1.8,1.2,3.3,2.9,3.8 v0.3c-2.8,0-3.8,3.4-3.8,3.4h10.5c0,0-1.2-3.4-3.8-3.4v-0.3c1.6-0.5,2.9-2,2.9-3.8V7.8c0.6-0.1,1.1-0.6,1.1-1.2s-0.5-1.1-1.1-1.2 V5.1c2-0.4,2.2-1.4,2.2-1.8C12.8,3.6,11.4,0,8,0z M8.7,13.3c0,0.6-1.5,0.5-1.5,0v-0.9c0.1,0.1,1.3,0.1,1.5,0V13.3z M12.6,6.6 c0,0.3-0.2,0.6-0.6,0.6c-0.1,0-0.5,0-0.5,0v1.4c0,1.8-1.4,3.2-3.2,3.2H7.6c-1.8,0-3.2-1.4-3.2-3.2V7.1l-0.5,0 c-0.3,0-0.6-0.2-0.6-0.6S3.6,6,3.9,6l0.5,0l0.8-2.2C6,4.3,7.8,5.5,11.6,5.2V6c0,0,0.5,0,0.5,0C12.4,6,12.6,6.3,12.6,6.6z M8,8.2 c0.3,0,0.5-0.2,0.5-0.4c0-0.2-0.2-0.4-0.5-0.4c-0.3,0-0.5,0.2-0.5,0.4C7.5,8,7.7,8.2,8,8.2z M10,6C9.7,6,9.4,6.3,9.4,6.6 S9.7,7.1,10,7.1c0.3,0,0.5-0.2,0.5-0.5S10.3,6,10,6z M6.6,6.6C6.6,6.3,6.3,6,6,6S5.5,6.3,5.5,6.6S5.7,7.1,6,7.1S6.6,6.9,6.6,6.6z M10.1,8.8c-0.2-0.1-0.4,0-0.4,0.2C9.3,9.6,8.7,10,8,10c-0.7,0-1.3-0.4-1.6-1C6.3,8.8,6.1,8.7,5.9,8.8C5.7,8.8,5.7,9,5.7,9.2 C6.2,10.1,7,10.7,8,10.7c1,0,1.8-0.6,2.3-1.4C10.3,9,10.3,8.8,10.1,8.8z"/>
    </symbol>

    <!-- Tema Nexy -->
    <symbol viewBox="0 0 127.72 33.77" id="nexy"><path d="M34.16.61c-1.78 0-3.22.13-3.7.13S27.9.61 25.94.61c-.52 0-.87 0-.87.3s.05.31.35.31a11.76 11.76 0 012.13.21c1.35.35 1.65 1.31 1.7 4.13l.47 22.08C28.33 26.2 23.6 20.9 19.29 16.3 12.6 9.13 6.13 2.13 5.48 1.39 5 1 4.3 0 4 0s-.47.48-.47 2.17v24.9c0 4-.21 5.22-1.3 5.52a6.11 6.11 0 01-1.78.26c-.22 0-.35.09-.35.26s.26.35.7.35c2 0 3.78-.13 4.17-.13s2.13.13 4.6.13c.52 0 .79-.09.79-.35s-.13-.26-.35-.26a9.32 9.32 0 01-2.17-.26c-1.18-.35-1.61-1.48-1.7-5L5.48 6.74c1.39 1.56 6.3 7 11.34 12.47 4.6 4.95 10.86 11.34 11.34 11.79 2.3 2.31 2.82 2.79 3.17 2.79s.39-.22.39-3.09l.09-25.47c0-2.6.17-3.56 1.61-3.86a3.81 3.81 0 011-.13c.31 0 .48-.13.48-.31s-.26-.32-.74-.32zm24.6 26.98c-.22 0-.3.18-.39.66-.3 1.78-.82 2.65-1.95 3.13a12.71 12.71 0 01-4.18.47c-4.26 0-4.91-.56-5-3.56V17a.28.28 0 01.31-.3c.74 0 5 .09 6.21.22 1.7.17 2.09.91 2.26 1.52a4.51 4.51 0 01.17 1.43c0 .22.09.39.31.39s.3-.47.3-.82.09-1.91.18-2.78c.13-1.44.34-2.18.34-2.44s-.08-.34-.21-.34-.35.21-.65.56-1 .52-2.05.61-6.34.09-6.91.09c-.21 0-.26-.13-.26-.44v-12c0-.31.09-.44.26-.44.48 0 5.22.05 6 .13 2.34.26 2.78.79 3.08 1.48a4.59 4.59 0 01.26 1.57c0 .34.09.56.35.56s.26-.26.3-.48c.09-.52.18-2.43.22-2.87.13-1.21.35-1.73.35-2s0-.39-.17-.39-.4.17-.61.22a13.49 13.49 0 01-1.95.22h-9.95L43.6.65h-3.13c-.48 0-.7.09-.7.35s.18.26.35.26a7.91 7.91 0 011.48.13c1.43.3 1.78 1 1.87 2.47s.08 2.61.08 9.39v7.65c0 4.17 0 7.6-.22 9.43-.17 1.26-.39 2.22-1.26 2.39a6.44 6.44 0 01-1.3.17c-.26 0-.35.13-.35.26s.22.35.7.35c.65 0 1.65-.09 2.52-.09h1.74c.65 0 1.69 0 3.39.13s4.08.13 7.34.13c1.7 0 2 0 2.35-1.13.21-.91.56-3.87.56-4.21s-.02-.74-.26-.74zm34.98 5.26a6.49 6.49 0 01-1.52-.26 4.69 4.69 0 01-2.56-2c-.91-1.18-8.35-13.82-9.17-15.17l7-10.42c1.26-1.86 2.08-3.12 3.34-3.52a4.89 4.89 0 011.44-.21c.3 0 .47-.13.47-.31s-.21-.3-.69-.3c-1.48 0-3.26.13-3.65.13S86.18.61 84.53.61c-.52 0-.74.13-.74.3s.13.31.39.31a5.14 5.14 0 011.31.13 1 1 0 01.74.78 3.47 3.47 0 01-.44 1.56c-.43.92-5.08 8.35-6.39 10.22-2.26-3.74-4-7-5.86-10.39a3.22 3.22 0 01-.44-1.43.72.72 0 01.52-.74 3.94 3.94 0 011.18-.13c.26 0 .39-.09.39-.31s-.13-.3-.74-.3c-1.48 0-3.7.13-4.09.13S66.5.61 65.28.61c-.57 0-.74.09-.74.3s.13.31.39.31a7.6 7.6 0 011.83.3C68.23 2 69.15 3.3 70.15 5l6.95 11.69-7.87 12.43c-1.39 2.21-2.3 3.17-3.6 3.52a7 7 0 01-1.65.21.31.31 0 00-.35.31c0 .17.08.3.43.3 1.44 0 3.57-.13 4-.13s3.13.13 4.17.13c.3 0 .52-.09.52-.3a.31.31 0 00-.35-.31 6.46 6.46 0 01-.82-.08.85.85 0 01-.7-.83 4.4 4.4 0 01.53-1.94l6.78-11.52c2.6 4.39 5.12 8.69 7.47 13 .39.7 0 1.13-.22 1.22a.33.33 0 00-.26.35c0 .21.22.3 1.35.34 2.22.09 4.3.09 7 .09.39 0 .61-.13.61-.35s-.14-.28-.4-.28zM127.15.61c-.82 0-4 .13-4.21.13s-1.74-.13-2.87-.13c-.44 0-.7.09-.7.26s.26.3.65.43.7.61.7 1.22a4.21 4.21 0 01-.72 2.22c-.87 1.43-6.39 11-7.21 12.77-.79-1.26-7.3-12.47-8-13.73a3.65 3.65 0 01-.56-1.69.88.88 0 01.56-.79c.39-.17.65-.21.65-.39s-.08-.3-.56-.3c-1.7 0-3.35.13-3.65.13s-3.5-.13-4.32-.13c-.4 0-.57.13-.57.3s.22.31.43.31a4.15 4.15 0 011.87.69 12.07 12.07 0 013 3.22c1.52 2.26 7.34 11.82 7.65 12.51a9.29 9.29 0 011 4.57v3.73c0 .7 0 2.52-.13 4.35-.09 1.26-.48 2.22-1.35 2.39a6.44 6.44 0 01-1.3.17c-.27 0-.35.13-.35.26s.22.35.69.35c1.31 0 4-.13 4.26-.13s3 .13 5.35.13c.47 0 .69-.13.69-.35s-.08-.26-.35-.26a18 18 0 01-2-.17c-1.3-.17-1.7-1.13-1.78-2.39-.13-1.83-.13-3.65-.13-4.35v-3.73a10.44 10.44 0 01.65-4.35A137 137 0 01122.85 4a8.3 8.3 0 012.3-2.21 4.09 4.09 0 012-.61c.35 0 .57-.13.57-.35s-.26-.22-.57-.22z"/></symbol>
    <symbol viewBox="0 0 40.66 40.63" id="z-calendar"><path d="M20.38 13.74h17.91c.75 0 1-.19.93-.94V7.5C39.19 6 38.46 5.1 37 5.06c-2.21-.07-4.42 0-6.63 0-.43 0-.55.17-.53.55s0 1 0 1.52-.24.81-.73.82a.69.69 0 01-.74-.79V.78a.68.68 0 01.7-.78c.52 0 .7.37.72.82a14.89 14.89 0 010 1.89c-.06.69.13.93.87.91 2-.06 4 0 6 0 2.61 0 4 1.44 4 4v29a3.63 3.63 0 01-4 4H3.97a3.64 3.64 0 01-4-4V7.53a3.61 3.61 0 013.89-3.92h4.93c.6 0 .66.24.65.72s0 .76-.64.74C7.23 5 5.65 5 4.07 5c-1.84 0-2.63.84-2.63 2.69 0 1.67.06 3.35 0 5 0 .89.27 1 1.05 1 5.95.03 11.92.05 17.89.05zm-.07 1.47H2.41c-.76 0-1 .14-1 1v20.37c0 1.84.78 2.64 2.65 2.64h32.49c1.87 0 2.62-.78 2.63-2.66V16.19c0-.72-.15-.94-.91-.94-5.96-.02-11.96-.04-17.96-.04z"/><path d="M19.6 5c-2.05 0-4.1.06-6.15 0-1 0-1.23.29-1.1 1.17a4.91 4.91 0 010 .94c0 .48-.25.81-.74.8a.69.69 0 01-.73-.79V.77a.68.68 0 01.68-.77.7.7 0 01.79.75 18 18 0 010 2.08c0 .63.17.79.79.79h12.88c.51 0 .9 0 .86.71 0 .56-.14.75-.74.74C24 5 21.78 5 19.6 5zm-6.86 24.23l1.43-.23a3.09 3.09 0 00.83 1.79 2 2 0 001.44.53 2.33 2.33 0 001.7-.69 2.37 2.37 0 00.69-1.73 2.16 2.16 0 00-.64-1.62 2.21 2.21 0 00-1.64-.64 3.85 3.85 0 00-1 .16l.16-1.26h.23a2.94 2.94 0 001.64-.48 1.62 1.62 0 00.73-1.46 1.73 1.73 0 00-.53-1.3 1.89 1.89 0 00-1.38-.52 2 2 0 00-1.38.52 2.68 2.68 0 00-.72 1.57l-1.43-.25a3.7 3.7 0 011.19-2.22 3.43 3.43 0 012.31-.79 3.67 3.67 0 011.75.41 2.89 2.89 0 011.65 2.61 2.44 2.44 0 01-.4 1.37 2.75 2.75 0 01-1.2 1 2.69 2.69 0 011.6 1 3 3 0 01.57 1.88 3.44 3.44 0 01-1.11 2.58 3.91 3.91 0 01-2.8 1.06 3.64 3.64 0 01-2.54-.92 3.5 3.5 0 01-1.15-2.37z"/><path d="M20.22 26.57a10.4 10.4 0 01.43-3.32 4.06 4.06 0 011.26-1.94 3.19 3.19 0 012.1-.68 3.49 3.49 0 011.65.37 3.26 3.26 0 011.16 1.09 5.6 5.6 0 01.72 1.73 11.2 11.2 0 01.26 2.75 10.68 10.68 0 01-.42 3.3 4.12 4.12 0 01-1.25 1.94 3.22 3.22 0 01-2.13.69 3.18 3.18 0 01-2.64-1.21 7.68 7.68 0 01-1.14-4.72zm1.47 0c0 1.91.22 3.18.67 3.81a1.92 1.92 0 003.31 0 7.33 7.33 0 00.67-3.8 7.37 7.37 0 00-.67-3.82 2 2 0 00-1.67-.95 1.83 1.83 0 00-1.57.83 7.4 7.4 0 00-.74 3.93z"/></symbol>
    <symbol viewBox="0 0 18.8 23.64" id="z-cart"><path d="M18.39 6.22h-3.1c-.37 0-.46-.11-.44-.46a4.75 4.75 0 00-.14-1.55 5.2 5.2 0 00-3.94-4 5.22 5.22 0 00-5.43 1.61 5.29 5.29 0 00-1.4 4c0 .32-.07.41-.39.4H.45c-.34 0-.45.07-.45.44v16.55c0 .36.11.43.45.43h18c.32 0 .4-.08.39-.4V6.6c-.04-.33-.16-.38-.45-.38zM8.57 1.27a4.29 4.29 0 015.11 4.14c0 .82 0 .82-.78.82H5.52c-.34 0-.39-.12-.41-.43a4.32 4.32 0 013.46-4.53zm9 20.79c0 .33-.09.4-.4.4H1.64c-.33 0-.46-.06-.46-.43V7.81c0-.3.06-.42.39-.41h2.08c.23 0 .29.07.29.3v2.29c0 .23.06.31.31.32.88 0 .88 0 .88-.85V7.77c0-.27.06-.37.35-.37h7.89c.26 0 .34.08.34.34v2.21c0 .27.08.36.36.36.83 0 .83 0 .83-.82v-1.7c0-.33.11-.4.41-.39h1.91c.36 0 .44.1.44.45v13.32a8.77 8.77 0 00-.05.89z"/></symbol>
    <symbol viewBox="0 0 30.24 28.91" id="z-comercial"><path d="M24.62 28.2c0 .7-.32.9-1 .54-1.5-.77-3-1.58-4.48-2.37-1.14-.6-2.3-1.18-3.42-1.82a1.13 1.13 0 00-1.26 0c-2.49 1.32-5 2.63-7.52 3.91a5 5 0 01-1.18.28 5.2 5.2 0 01-.11-1.29c.45-2.76.92-5.52 1.44-8.26a1.3 1.3 0 00-.47-1.35l-6-6a4.13 4.13 0 01-.55-1 4 4 0 011-.46c2.79-.41 5.6-.8 8.4-1.17a1.32 1.32 0 001.17-.84C11.88 5.8 13.16 3.24 14.46.7a3.62 3.62 0 01.7-.77 3.64 3.64 0 01.77.8c1.27 2.53 2.5 5.07 3.73 7.62a1.4 1.4 0 001.21.91c2.87.38 5.72.83 8.58 1.28.3.05.72.22.81.45s-.18.61-.4.82c-2 2-4.08 4-6.16 6a1.56 1.56 0 00-.51 1.62c.49 2.72.94 5.45 1.4 8.18 0 .22.01.39.03.59zm-17.85-.92c.42-.2.7-.32 1-.46 2.18-1.13 4.37-2.25 6.53-3.42a1.54 1.54 0 011.63 0c2.16 1.18 4.34 2.32 6.51 3.47l.9.46c0-.43 0-.71-.08-1-.4-2.36-.79-4.73-1.23-7.08a1.87 1.87 0 01.63-1.95c1.53-1.38 3-2.85 4.46-4.29.45-.44.88-.9 1.4-1.44l-.44-.08c-2.52-.38-5.05-.77-7.57-1.12a1.9 1.9 0 01-1.69-1.16C17.78 7 16.66 4.8 15.57 2.6c-.11-.23-.26-.45-.45-.78-1.31 2.63-2.53 5.18-3.83 7.61a1.76 1.76 0 01-1.07.79c-1.23.26-2.49.38-3.74.56l-4.75.69.75.8C4.26 14 6 15.78 7.81 17.51a1.35 1.35 0 01.43 1.39c-.5 2.71-.96 5.44-1.47 8.38z"/></symbol>
    <symbol viewBox="0 0 27.36 18.9" id="z-contato"><path d="M13.75 0h10.62a2.69 2.69 0 013 3v13a2.63 2.63 0 01-2.78 2.86H2.8A2.63 2.63 0 010 16c0-4.32.07-8.67 0-13a2.86 2.86 0 013-3c3.6.07 7.17 0 10.75 0zm11.49 1.49c-.63-.24-22.59-.21-23.06 0l.19.2 10.4 9.58a1.22 1.22 0 001.89 0l4.52-4.17c2.01-1.85 4.01-3.71 6.06-5.61zM2.64 17.55h22.11l-7.26-7.1-2 1.82a2.51 2.51 0 01-3.6 0l-2-1.8zm-1.24-.79h.16L9 9.58l-7.58-7zm17-7.19l7.43 7.23.13-.06V2.59z"/></symbol>
    <symbol viewBox="0 0 39.12 39.12" id="z-dolar"><path d="M19.68 0a19.56 19.56 0 1019.44 19.77A19.56 19.56 0 0019.68 0zm-.15 37.48a17.92 17.92 0 1117.95-17.81 17.92 17.92 0 01-17.95 17.81z"/><path d="M24.11 19.56a7.59 7.59 0 00-4.46-.82h-1.72A4.1 4.1 0 0114 15.82a6 6 0 01-.17-2 4.07 4.07 0 013.94-4.06h3.58a4 4 0 013.8 3.24c.12.78.42.85 1.07.86s.71-.22.63-.76a5.69 5.69 0 00-5-4.89c-.49-.06-1.22.08-1.42-.2s-.14-1-.09-1.52-.14-.84-.82-.84-.95.17-.84.86c.05.34 0 .69 0 1s-.13.6-.6.6a5.68 5.68 0 00-5.27 3 6.92 6.92 0 00-.59 4.36 5.64 5.64 0 004.9 4.77c1.4.15 2.8 0 4.2.09a3.9 3.9 0 013 1.52 4.75 4.75 0 01.9 3.36 4 4 0 01-3.47 4 19.57 19.57 0 01-4.12 0 4 4 0 01-3.79-3.62c-.06-.36-.17-.48-.51-.44a2.57 2.57 0 01-.62 0c-.46-.06-.54.15-.5.55a5.55 5.55 0 00.9 2.57 5.68 5.68 0 005 2.6c.51 0 .63.16.59.62s0 .92 0 1.37c0 .3 0 .44.4.46 1.25.05 1.25.07 1.25-1.21a5 5 0 000-.55c-.06-.49.06-.69.64-.7a5.67 5.67 0 005.66-4.15 7.44 7.44 0 00.2-2.53 5.57 5.57 0 00-2.74-4.62z"/></symbol>
    <symbol viewBox="0 0 21.19 24.18" id="z-login"><path d="M21.19 23.2c-.05-1.21 0-2.42 0-3.63A4.57 4.57 0 0016.6 15H4.43A4.4 4.4 0 000 19.56c0 1.18.05 2.35 0 3.53 0 .82.21 1.1 1.07 1.09 3.17-.05 6.34 0 9.5 0h9.61c.72 0 1.04-.18 1.01-.98zm-4.14-.55H2.53c-.81 0-1.09-.25-1-1 .06-.6 0-1.21 0-1.82a3 3 0 013.15-3.29c3.91-.05 7.83-.06 11.75 0a3.09 3.09 0 013.23 3.26c.01 3.51.5 2.79-2.61 2.85zm-6.73-9.15A6.75 6.75 0 1010.67 0a6.63 6.63 0 00-6.9 6.85 6.54 6.54 0 006.55 6.65zm.37-12a5.25 5.25 0 11-.24 10.5 5.15 5.15 0 01-5.1-5.31 5.14 5.14 0 015.34-5.18z"/></symbol>
    <symbol viewBox="0 0 34 33.12" id="z-menu"><path d="M0 0h34v2H0zm0 10.37h34v2H0zm0 10.37h34v2H0zm0 10.38h34v2H0z"/></symbol>
    <symbol viewBox="0 0 22.74 21.98" id="z-nexy"><path d="M3.93 17.93C4 20.25 4.27 21 5 21.21a6.32 6.32 0 001.42.17c.14 0 .22.06.22.17s-.16.23-.5.23c-1.62 0-2.75-.09-3-.09s-1.44.09-2.72.09c-.28 0-.45 0-.45-.23s.08-.17.23-.17a4.17 4.17 0 001.16-.17c.7-.2.84-1 .84-3.59V1.41C2.26.31 2.35 0 2.57 0s.71.62 1 .91c.43.48 4.64 5 9 9.7 2.8 3 5.88 6.44 6.79 7.38L19 3.62c0-1.84-.22-2.46-1.1-2.69a7.81 7.81 0 00-1.35-.14c-.2 0-.23-.08-.23-.2s.23-.19.56-.19c1.28 0 2.63.08 2.95.08S21.07.4 22.23.4c.31 0 .51 0 .51.19s-.11.2-.31.2a2.37 2.37 0 00-.68.09c-.93.19-1.05.82-1.05 2.51L20.65 20c0 1.86-.06 2-.26 2s-.56-.32-2.06-1.81c-.33-.31-4.39-4.46-7.33-7.69C7.66 9 4.47 5.4 3.56 4.38z"/></symbol>
    <symbol viewBox="0 0 22.34 28.1" id="z-pedidos"><path d="M21.86 7.39h-3.69c-.43 0-.54-.13-.51-.54A5.79 5.79 0 0017.49 5 6.22 6.22 0 0012.8.24a6.21 6.21 0 00-6.45 1.92 6.31 6.31 0 00-1.67 4.77c0 .38-.08.49-.46.48H.54c-.42 0-.54.09-.54.52v19.68c0 .43.13.51.54.51h21.33c.38 0 .47-.1.47-.47V7.87c0-.42-.13-.48-.48-.48zM10.18 1.52a5.09 5.09 0 016.08 4.91c0 1 0 1-.92 1H6.57c-.42 0-.48-.13-.5-.51a5.13 5.13 0 014.11-5.4zm10.75 24.71c0 .38-.1.47-.47.47H1.95c-.39 0-.55-.07-.55-.51V9.29c0-.36.07-.51.47-.49h2.47c.27 0 .35.09.34.35v2.72c0 .28.07.37.36.38 1.06 0 1 0 1-1v-2c0-.31.06-.43.41-.43h9.38c.31 0 .41.09.4.4v2.62c0 .33.08.43.42.43 1 0 1 0 1-1v-2c0-.4.12-.48.48-.47h2.27c.43 0 .53.11.53.53v15.84c0 .35-.03.71 0 1.06z"/></symbol>
    <symbol viewBox="0 0 25.7 25.62" id="z-search"><path d="M25.13 24c-2.56-2.57-5.12-5.14-7.7-7.68-.46-.46-.51-.73-.09-1.31A9.2 9.2 0 0019 8.52 9.55 9.55 0 009.58 0 9.39 9.39 0 00.24 11.55a9.51 9.51 0 0014.58 5.85c.77-.51 1.15-.35 1.71.22 2.46 2.51 5 5 7.44 7.45.41.41.73.88 1.39.24s.16-.96-.23-1.31zM9.48 17.38a7.67 7.67 0 01-7.75-7.87A7.79 7.79 0 019.6 1.62a7.74 7.74 0 017.86 7.94c-.04 4.73-3.28 7.65-7.98 7.82z"/></symbol>
    <symbol viewBox="0 0 48.7 48.24" id="z-shirt"><path d="M48.66 23.21c-.58-3.55-1-7.12-1.72-10.65-.59-3-1.15-6-3.62-8.28C40 1.28 36 .42 31.84 0c-.77-.08-.95.51-1.17 1.15A6.58 6.58 0 0124.3 5.7 6.49 6.49 0 0118 1.1c-.28-.84-.67-1.18-1.53-1.1a26.27 26.27 0 00-5.7 1.12c-3.61 1.29-6.7 3.24-7.94 7.11C1.25 13.12.73 18.22 0 23.28c-.15 1.06.26 1.48 1.32 1.46 1.8 0 3.6.05 5.4 0 1-.05 1.35.2 1.34 1.3-.06 6.78 0 13.55 0 20.33 0 1.8.1 1.91 1.94 1.91h28.73c1.76 0 1.84-.09 1.84-1.85V26.1c0-1 .17-1.43 1.3-1.36 1.79.11 3.6 0 5.4 0 1.07.02 1.58-.37 1.39-1.53zM45.9 23c-1.42 0-2.84-.06-4.26 0-.91.05-1.1-.29-1.09-1.13.05-3.56 0-7.11 0-10.66a10.85 10.85 0 000-1.14.8.8 0 00-1.6 0v34.96c0 1.29-.35 1.55-1.57 1.54q-13.15-.08-26.31 0c-1.07 0-1.34-.28-1.33-1.34.06-5.73 0-11.47 0-17.2V10.57c0-.63-.08-1.22-.85-1.19s-.85.62-.84 1.24v11.37c0 .75-.1 1.11-1 1.07-1.52-.08-3 0-4.55 0-.62 0-.82-.14-.71-.81C2.51 18.19 3 14.11 4 10.1a9.58 9.58 0 015.87-6.8 20.81 20.81 0 015.75-1.48c.58-.08.78.06 1 .59a8.11 8.11 0 007.63 5 8.12 8.12 0 007.74-5c.2-.42.35-.65.92-.57a22.16 22.16 0 015.88 1.53A9.47 9.47 0 0144.65 10c1 4 1.54 8.08 2.14 12.15.13.9-.24.9-.89.85z"/></symbol>
    <symbol viewBox="0 0 67.59 30.38" id="z-truck"><path d="M67.58 16.17a3.54 3.54 0 00-.28-1.5 499.74 499.74 0 01-3.6-8.23 1.44 1.44 0 00-1.56-1h-5.69c-1.18 0-2.72.5-3.44-.2s-.17-2.24-.25-3.47a.49.49 0 010-.12C52.74.13 52.64 0 51.15 0H18.64c-1 0-1.4.37-1.45 1.37-.16 2.8-.4 5.59-.6 8.39-.36 4.87-.69 9.76-1.08 14.63-.08 1.06.34 1.44 1.35 1.41h3.55c.71 0 1.11.11 1.36.91a5.41 5.41 0 0010.26 0c.26-.81.66-.9 1.35-.89h12.1a1.15 1.15 0 011.35.91A5.34 5.34 0 0052 30.38a5.4 5.4 0 005.12-3.71 1.09 1.09 0 011.25-.89h7.83c1.07 0 1.47-.39 1.44-1.47-.1-2.7-.07-5.42-.06-8.14zM26.85 28.76A3.75 3.75 0 0123.1 25a3.81 3.81 0 013.74-3.81A3.86 3.86 0 0130.73 25a3.8 3.8 0 01-3.88 3.76zm20-5.39a1 1 0 01-1.13.85H33.26a1 1 0 01-1.16-.82 5.42 5.42 0 00-5.14-3.85 5.36 5.36 0 00-5.15 3.82 1 1 0 01-1.28.84c-1-.08-2.43.44-3.09-.2s-.07-2 0-3.06c.41-5.95.87-11.89 1.25-17.83.08-1.14.35-1.6 1.64-1.58 4.91.09 9.81 0 14.71 0h15c.89 0 1.23.17 1.22 1.15-.06 5.29 0 10.58 0 15.87 0 .74-.16 1.08-.93 1.31a5 5 0 00-3.52 3.5zm5 5.39A3.83 3.83 0 0148.1 25a3.84 3.84 0 117.67.07 3.78 3.78 0 01-3.92 3.69zM65 24.22h-6.76c-.64 0-1-.14-1.16-.81a5.08 5.08 0 00-3.61-3.59.85.85 0 01-.73-1V7.95c0-.67.21-.9.88-.88h7.7a1.12 1.12 0 011.25.78c1 2.43 2.11 4.83 3.18 7.24a3.07 3.07 0 01.25 1.28v6.86c0 .77-.22 1.01-1 .99zM12.67 6.27c.55 0 1.21.05 1.26-.72s-.66-.86-1.25-.86H1.21c-.57 0-1.21 0-1.21.79s.62.79 1.2.79h11.47zm.16 7.42c.53 0 1.1-.08 1.11-.78s-.52-.8-1.07-.8H4.22c-.56 0-1.09.08-1.11.77s.53.8 1.07.8h4.27zm.06 5.81H7.33c-.53 0-1.1.11-1.11.78s.61.82 1.18.83h5.44c.53 0 1.09-.11 1.11-.78s-.52-.83-1.06-.83z"/></symbol>
    <symbol viewBox="0 0 20.84 23.78" id="z-user"><path d="M20.82 19.25a4.48 4.48 0 00-4.5-4.47q-6-.06-12 0A4.33 4.33 0 000 19.24c0 1.15.05 2.31 0 3.47 0 .81.2 1.09 1.05 1.07 3.12-.05 6.23 0 9.35 0h9.45c.71 0 1-.21 1-1-.06-1.15 0-2.34-.03-3.53zm-4.05 3H2.48c-.8 0-1.07-.24-1-1 .05-.59 0-1.19 0-1.79a3 3 0 013.09-3.23c3.85-.05 7.71-.06 11.56 0a3 3 0 013.18 3.21c.04 3.49.52 2.78-2.54 2.84zm-6.62-8.97A6.64 6.64 0 1010.49 0a6.52 6.52 0 00-6.78 6.74 6.43 6.43 0 006.44 6.54zm.36-11.8a5.17 5.17 0 11-.23 10.33 5.06 5.06 0 01-5-5.23 5 5 0 015.23-5.1z"/></symbol>
    <symbol viewBox="-23 -21 682 682.667" id="z-whatsapp"><path d="M544.387 93.008C484.512 33.063 404.883.035 320.05 0 145.246 0 2.98 142.262 2.91 317.113c-.024 55.895 14.577 110.457 42.331 158.551L.25 640l168.121-44.102c46.324 25.27 98.477 38.586 151.55 38.602h.134c174.785 0 317.066-142.273 317.132-317.133.036-84.742-32.921-164.418-92.8-224.36zM320.05 580.94h-.11c-47.296-.02-93.683-12.73-134.16-36.742l-9.62-5.715-99.766 26.172 26.628-97.27-6.27-9.972c-26.386-41.969-40.32-90.476-40.296-140.281.055-145.332 118.305-263.57 263.7-263.57 70.406.023 136.59 27.476 186.355 77.3s77.156 116.051 77.133 186.485C583.582 462.69 465.34 580.94 320.05 580.94zm144.586-197.418c-7.922-3.968-46.883-23.132-54.149-25.78-7.258-2.645-12.547-3.962-17.824 3.968-5.285 7.93-20.469 25.781-25.094 31.066-4.625 5.29-9.242 5.953-17.168 1.985-7.925-3.965-33.457-12.336-63.726-39.332-23.555-21.012-39.457-46.961-44.082-54.89-4.617-7.938-.04-11.813 3.476-16.173 8.578-10.652 17.168-21.82 19.809-27.105 2.644-5.29 1.32-9.918-.664-13.883-1.977-3.965-17.824-42.969-24.426-58.84-6.437-15.445-12.965-13.36-17.832-13.601-4.617-.231-9.902-.278-15.187-.278-5.282 0-13.868 1.98-21.133 9.918-7.262 7.934-27.73 27.102-27.73 66.106s28.394 76.683 32.355 81.972c3.96 5.29 55.879 85.328 135.367 119.649 18.906 8.172 33.664 13.043 45.176 16.695 18.984 6.031 36.254 5.18 49.91 3.14 15.226-2.277 46.879-19.171 53.488-37.68 6.602-18.51 6.602-34.374 4.617-37.683-1.976-3.304-7.261-5.285-15.183-9.254zm0 0" fill-rule="evenodd"/></symbol>
    <symbol viewBox="0 0 24.91 21.52" id="z-wish"><path d="M24.89 7.27a8 8 0 00-2.6-5.5 6.57 6.57 0 00-8.47-.4 8.33 8.33 0 00-1.36 1.42c-.1-.12-.18-.22-.25-.32A6.51 6.51 0 004.34.61 7.53 7.53 0 00.49 5a6.29 6.29 0 00.44 5.72 17.11 17.11 0 002 2.79 50.46 50.46 0 008.91 7.79 1 1 0 001.29-.05 55.88 55.88 0 007.65-6.41 19.25 19.25 0 003.34-4.38 5.71 5.71 0 00.77-3.19zm-2.21 2.93a22.54 22.54 0 01-2.2 2.92 51.77 51.77 0 01-7.77 6.72c-.14.1-.26.19-.45.05A46.62 46.62 0 013.47 12a14 14 0 01-1.38-2 4.93 4.93 0 01-.35-4.3 6.19 6.19 0 013.19-3.82 5.82 5.82 0 012.57-.49 4.88 4.88 0 014.09 2.67c.21.36.34.82.87.83s.64-.44.84-.79a5.12 5.12 0 017.08-2c2.55 1.43 4.18 5.29 2.3 8.1z"/></symbol>
</svg>